<svg width="100" height="101" viewBox="0 0 100 101" fill="none" xmlns="http://www.w3.org/2000/svg">
<path d="M66.1033 100.395V87.619H58.0341V100.457H13.3412C5.61082 100.454 0 94.8409 0 87.0989C0 74.4913 0 61.8836 0 49.276C0 42.2698 4.4892 37.0555 11.4126 35.9776C11.985 35.8629 12.5142 35.5904 12.9404 35.1908C13.9033 34.3096 14.7748 33.3287 15.7673 32.3047L21.6256 36.4627C22.0371 34.059 22.4325 31.8008 22.8279 29.4375H31.9731C32.3631 31.7307 32.7504 33.9916 33.1727 36.4654C35.1577 35.0506 37.0244 33.7248 39.031 32.2993C39.9778 33.2775 40.9138 34.218 41.8203 35.2069C42.0236 35.4457 42.2797 35.6336 42.5683 35.7557C42.8569 35.8778 43.1699 35.9308 43.4825 35.9102C47.2051 35.8752 50.9278 35.8941 54.7445 35.8941V53.3261C56.9528 53.9648 59.0965 54.5927 61.243 55.2124C64.1748 56.0505 67.1147 56.8616 70.0358 57.732C70.6436 57.9152 70.9664 57.7589 71.4264 57.3574C72.591 56.3492 73.8056 55.4003 75.0656 54.5145C75.5202 54.1912 75.7703 53.919 75.7596 53.3288C75.7192 51.3159 75.7434 49.3056 75.7434 47.2388C73.788 47.1229 72.0692 46.549 70.6006 45.3309C69.132 44.1129 68.2928 42.5743 67.8113 40.7311H64.5029C64.2742 36.3247 65.0086 31.9214 66.6547 27.8288C65.8478 27.8288 65.1727 27.845 64.4895 27.8288C64.0618 27.8288 63.6383 27.7437 63.2437 27.5783C62.849 27.413 62.4912 27.1707 62.1908 26.8656C61.8905 26.5604 61.6537 26.1985 61.4942 25.8009C61.3347 25.4033 61.2557 24.9778 61.2618 24.5493C61.2403 23.5074 61.2403 22.4645 61.2618 21.4208C61.2531 20.9909 61.3307 20.5637 61.49 20.1645C61.6493 19.7653 61.8871 19.4023 62.1891 19.0969C62.4912 18.7915 62.8514 18.55 63.2484 18.3868C63.6455 18.2236 64.0711 18.1419 64.5003 18.1467C66.0065 18.1198 67.5155 18.1467 69.0271 18.1467C70.6955 14.3684 73.739 11.3694 77.5375 9.76077C87.2502 5.50583 98.5686 11.9597 99.7145 22.5148C100.236 27.3168 100.204 32.1161 98.2244 36.6863C96.3227 41.0679 93.2402 44.3824 89.1384 46.7484C88.2588 47.2577 87.9952 47.7481 88.1566 48.8044C88.3475 50.3198 88.9123 51.7637 89.8001 53.0055C92.1567 56.2809 93.426 60.2156 93.4285 64.2532C93.5254 76.153 93.4689 88.0556 93.4689 99.9581C93.4689 100.085 93.4447 100.214 93.4258 100.403L66.1033 100.395ZM32.2125 65.0239H45.1475V81.0359H48.2784C48.8567 77.0396 50.6507 75.2395 54.7338 74.5497V61.7202H53.4965C40.0477 61.7202 26.5918 61.7202 13.1287 61.7202C11.3977 61.7463 9.6792 61.4234 8.07532 60.7706C6.47145 60.1179 5.01498 59.1487 3.79255 57.9206C3.66075 57.7913 3.52358 57.6727 3.2546 57.4437C3.23846 57.7994 3.21963 57.9826 3.21963 58.1766C3.21963 67.9584 3.19543 77.7375 3.21963 87.5193C3.23846 92.9815 7.48558 97.1825 12.9646 97.2203C16.9562 97.2499 20.9505 97.2203 24.9448 97.2203C25.2137 97.2203 25.4558 97.1799 25.8136 97.1475V81.0574H32.199L32.2125 65.0239ZM83.6217 67.2901C82.2042 70.125 80.7894 72.9005 79.4311 75.703C78.7021 77.204 77.5698 77.883 75.9048 77.8723C71.4075 77.8372 66.9103 77.8723 62.4103 77.8723H61.2968V84.3261H62.0472C66.8134 84.3261 71.5824 84.3773 76.3486 84.3099C80.6522 84.2506 83.9902 82.3266 86.3895 78.7453C89.7409 73.7413 90.8598 68.236 90.0206 62.3076C89.7412 60.1865 89.066 58.137 88.0302 56.2661L78.4412 64.2532L75.4099 58.2224C70.8534 61.1004 68.2794 68.2117 69.4306 74.6305C71.5824 74.6305 73.7664 74.6521 75.9398 74.6009C76.2087 74.6009 76.5396 74.2371 76.6848 73.9595C77.6854 72.0193 78.6403 70.0576 79.6167 68.1066C79.9852 67.3683 80.3725 66.6407 80.7786 65.8539L83.6217 67.2901ZM25.8566 58.4434C20.9693 56.5571 18.7099 53.2237 19.4711 49.0901C20.192 45.1881 23.4035 42.4099 27.2553 42.3533C29.1331 42.3237 30.9625 42.9513 32.4281 44.1279C33.8937 45.3045 34.9038 46.9565 35.2842 48.799C35.5059 49.837 35.5158 50.9092 35.3133 51.9512C35.1109 52.9931 34.7002 53.9832 34.1061 54.8621C32.8849 56.7484 31.107 57.8452 28.9794 58.4353H38.91C38.7376 58.1196 38.5359 57.821 38.3074 57.5434C37.3526 56.6029 37.288 55.6571 37.8798 54.4256C38.2537 53.6441 38.6517 53.3288 39.4614 53.2157C41.3442 52.9462 43.2109 52.5959 45.0964 52.2752V48.6239C44.8739 48.544 44.6466 48.4783 44.4159 48.4272C42.6648 48.1334 40.9192 47.8397 39.1574 47.5702C38.5899 47.4813 38.138 47.3385 38.025 46.6621C37.957 46.2981 37.8201 45.9505 37.6216 45.6381C37.245 45.0345 37.3687 44.5737 37.7803 44.0213C38.9611 42.4449 40.0773 40.82 41.1505 39.3137L38.5199 36.6189C36.9222 37.7588 35.2922 38.9526 33.6327 40.0736C33.2547 40.2729 32.8202 40.3375 32.4008 40.2568C30.6605 39.9873 29.98 38.8636 30.0176 37.1902C30.0204 37.1571 30.0204 37.1237 30.0176 37.0905C29.7487 35.6192 29.5093 34.1479 29.2591 32.7062H25.5526C25.2837 34.2584 24.9501 35.7701 24.8103 37.2872C24.6704 38.8044 24.2723 39.8553 22.5966 40.2191C21.9833 40.3565 21.5853 40.4158 21.0688 40.0305C19.4846 38.8502 17.8626 37.7211 16.3698 36.6567L13.6505 39.284C14.5946 40.6071 15.4741 42.0057 16.5258 43.2641C17.3785 44.2854 17.521 45.1666 16.9347 46.398C16.5581 47.1822 16.1546 47.4894 15.3504 47.6053C13.4676 47.8747 11.6009 48.2278 9.71807 48.5484V52.1917C9.94207 52.2696 10.1701 52.3353 10.4013 52.3884C12.155 52.6794 13.8979 52.9273 15.657 53.2696C16.0255 53.3396 16.5231 53.5794 16.6657 53.8813C17.6313 55.9104 17.6044 55.9238 16.3214 57.7724C16.195 57.953 16.0793 58.1416 15.8964 58.4218L25.8566 58.4434ZM29.0493 97.1745H54.7391V87.5732C52.6411 87.4304 50.917 86.6247 49.6959 84.9432C49.5539 84.7251 49.3549 84.5503 49.1206 84.4377C48.8864 84.3251 48.6257 84.279 48.3671 84.3045C42.2264 84.3234 36.083 84.3045 29.9396 84.3045C29.6491 84.3045 29.3586 84.3423 29.0493 84.3611V97.1745ZM83.8261 27.8261C79.3584 27.8261 75.036 27.8261 70.7136 27.8558C70.4446 27.8558 70.0519 28.2438 69.9067 28.5429C68.6216 31.3653 67.891 34.4091 67.7549 37.5082H70.875C70.8911 37.8262 70.9045 38.0202 70.9072 38.2169C70.9691 42.2374 72.7121 43.9647 76.7117 43.9647H82.1181V47.2145H79.0195V52.6659L85.206 50.8847C85.206 50.6314 85.206 50.4967 85.1818 50.3674C84.7379 47.3089 84.3076 44.2504 83.8369 41.2053C83.7239 40.4778 83.8369 39.9388 84.4367 39.4349C85.1684 38.7921 85.8533 38.0978 86.4863 37.3573C87.0242 36.7429 87.2367 36.0099 86.844 35.2015C86.4863 34.474 85.8461 34.2665 85.0849 34.2934C84.6922 34.3096 84.2995 34.2934 83.8342 34.2934L83.8261 27.8261ZM69.3526 87.5436V97.1745H90.1712V78.7453C89.9641 79.0633 89.8485 79.225 89.749 79.3948C86.5508 84.9701 81.7335 87.6621 75.3238 87.549C73.3522 87.5166 71.3833 87.5436 69.3526 87.5436ZM72.7739 18.0497C72.8233 18.0778 72.8756 18.1004 72.9299 18.1171C76.4858 18.1171 80.039 18.1171 83.5948 18.144C85.6686 18.144 86.9947 19.4752 87.0242 21.5367C87.0242 22.5337 87.0242 23.528 87.0242 24.5251H96.6428C96.7423 18.9632 92.5893 13.501 87.2717 12.1294C81.5856 10.6635 75.2351 13.2343 72.7739 18.0497ZM48.2972 55.0103L41.3415 56.2041C41.6318 56.5862 41.9011 56.9838 42.1484 57.3952C42.603 58.2521 43.2243 58.5727 44.2464 58.5189C46.1535 58.4218 48.0659 58.4919 49.9783 58.4919H51.5141V39.1223C49.9675 39.1223 48.4586 39.222 46.9684 39.0927C45.6693 38.9795 44.8812 39.4134 44.2141 40.5209C43.3776 41.9087 42.3582 43.186 41.3253 44.6411L48.2972 45.8349V55.0103ZM96.6374 27.8962H87.0269C87.0269 28.904 87.0027 29.8418 87.0458 30.7768C87.0529 30.9132 87.0902 31.0462 87.1548 31.1665C87.2195 31.2867 87.3099 31.391 87.4196 31.4721C90.4833 32.8194 91.4973 37.1902 88.3315 40.0601C87.3255 40.9709 86.9866 41.8817 87.3927 43.1321C87.4467 43.3569 87.4818 43.5858 87.4976 43.8165C93.1622 41.1326 97.014 34.2422 96.6374 27.8962ZM41.8848 68.2602H35.5262V81.0116H41.8848V68.2602ZM27.4355 55.261C28.3923 55.2578 29.3268 54.9706 30.1209 54.4356C30.9149 53.9007 31.533 53.1421 31.897 52.2555C32.2609 51.3689 32.3545 50.3941 32.1659 49.4543C31.9773 48.5145 31.5149 47.6517 30.8371 46.975C30.1594 46.2983 29.2967 45.8379 28.358 45.652C27.4192 45.4662 26.4466 45.5632 25.5628 45.9308C24.6791 46.2984 23.9239 46.9201 23.3926 47.7174C22.8613 48.5147 22.5778 49.4518 22.5778 50.4105C22.5813 51.6986 23.0948 52.9327 24.0055 53.842C24.9162 54.7514 26.1497 55.2617 27.4355 55.261ZM13.4783 44.6411C12.4024 43.1213 11.3723 41.7685 10.4497 40.3484C10.0166 39.6801 9.62124 39.6721 8.97032 39.9631C7.15409 40.7671 5.6297 42.1129 4.60515 43.817C3.58061 45.521 3.10581 47.5002 3.24554 49.4846C3.38528 51.469 4.13274 53.3618 5.38594 54.9048C6.63914 56.4479 8.33704 57.566 10.248 58.1066C11.8968 58.5701 12.8382 57.961 13.2255 56.1529L6.51996 55.0157V45.8241L13.4783 44.6411ZM68.6183 60.6692L54.8414 56.7242V58.4973H58.0206C58.0206 60.1411 57.9991 61.6824 58.0395 63.2184C58.0395 63.5122 58.252 63.9972 58.4645 64.0619C61.1112 64.8703 63.7794 65.6032 66.3481 66.3335C67.1228 64.4041 67.8517 62.5798 68.6183 60.6692ZM83.74 24.579V21.437H64.554V24.579H83.74ZM58.0206 74.5793H66.0899C66.0899 73.0272 66.106 71.5262 66.0684 70.0253C66.0417 69.9103 65.988 69.8033 65.9118 69.7133C65.8355 69.6233 65.7389 69.5529 65.63 69.5079C63.1365 68.7695 60.6324 68.0635 58.0314 67.3198V74.5793H58.0206ZM57.983 77.8696C56.7753 77.8696 55.6698 77.8211 54.5697 77.8696C53.792 77.9205 53.0596 78.2537 52.5095 78.8068C51.9594 79.3599 51.6294 80.0949 51.5814 80.8742C51.4845 82.491 52.6573 84.0593 54.2711 84.2399C55.4842 84.3746 56.7215 84.2668 57.983 84.2668V77.8696ZM85.1979 54.4256L85.0984 54.2343L78.105 56.39C78.6295 57.4329 79.0464 58.2602 79.5064 59.1818L85.1979 54.4256Z" fill="#145594"/>
<path d="M35.505 26.1632H32.2773V10.1135H38.6521V6.89598H41.8502V10.0704H45.5432C47.3211 10.0704 49.099 10.0461 50.877 10.0704C51.5413 10.0865 51.9152 9.91675 52.2649 9.26194C52.8183 8.24927 53.724 7.4758 54.8097 7.08872C55.8954 6.70165 57.0852 6.728 58.1528 7.16276C59.2327 7.56529 60.133 8.34209 60.6904 9.35239C61.2479 10.3627 61.4256 11.5396 61.1915 12.6699C60.9573 13.8002 60.3267 14.8091 59.414 15.5137C58.5013 16.2183 57.3668 16.572 56.2161 16.5107C54.4032 16.4083 53.0718 15.5002 52.1573 13.9292C52.004 13.6597 51.6624 13.3283 51.4042 13.3256C48.2894 13.2851 45.1747 13.2986 41.99 13.2986V19.712H48.2841V22.9106H38.6924V13.3471H35.505V26.1632ZM56.4313 10.0892C56.1108 10.0828 55.7957 10.1721 55.5261 10.3458C55.2565 10.5195 55.0446 10.7698 54.9175 11.0646C54.7904 11.3594 54.7538 11.6854 54.8124 12.0012C54.8709 12.3169 55.022 12.608 55.2464 12.8374C55.4708 13.0667 55.7582 13.224 56.0721 13.289C56.386 13.3541 56.7122 13.324 57.0089 13.2026C57.3057 13.0813 57.5597 12.8741 57.7385 12.6076C57.9173 12.341 58.0128 12.0272 58.0129 11.706C58.013 11.2828 57.8474 10.8764 57.5517 10.5741C57.256 10.2718 56.8537 10.0977 56.4313 10.0892Z" fill="#145594"/>
<path d="M22.5263 16.5269V26.1443H19.3658V19.7552H17.9456C15.393 19.7552 12.8351 19.7767 10.2933 19.739C9.64505 19.739 9.3169 19.9141 8.99144 20.5151C8.44176 21.5299 7.53957 22.3074 6.45586 22.7003C5.37215 23.0931 4.18223 23.074 3.11164 22.6466C2.0528 22.2318 1.17439 21.4554 0.631627 20.4546C0.0888658 19.4537 -0.0833056 18.2929 0.145537 17.1772C0.374379 16.0616 0.989504 15.0628 1.88221 14.3575C2.77492 13.6522 3.88775 13.2857 5.02405 13.3229C6.75894 13.4037 8.13341 14.2121 8.95916 15.732C9.32766 16.411 9.73381 16.5619 10.4385 16.5404C14.4301 16.508 18.4217 16.5269 22.5263 16.5269ZM4.81156 16.5269C4.49234 16.5328 4.18204 16.6335 3.91993 16.8161C3.65782 16.9988 3.45568 17.2552 3.33908 17.553C3.22248 17.8508 3.19667 18.1765 3.2649 18.489C3.33313 18.8014 3.49235 19.0866 3.7224 19.3084C3.95245 19.5302 4.243 19.6787 4.55729 19.735C4.87158 19.7913 5.19549 19.753 5.48802 19.6248C5.78056 19.4967 6.02858 19.2845 6.20071 19.0151C6.37284 18.7457 6.46133 18.4312 6.455 18.1114C6.44512 17.684 6.26666 17.2779 5.95867 16.9819C5.65068 16.686 5.23823 16.5243 4.81156 16.5323V16.5269Z" fill="#145594"/>
<path d="M29.014 26.1632H25.7863V25.0422C25.7863 20.2699 25.7863 15.5002 25.7863 10.7279C25.7863 10.1162 25.6948 9.73087 25.0574 9.39942C24.1118 8.9039 23.3643 8.09869 22.9395 7.118C22.5147 6.1373 22.4381 5.04036 22.7227 4.01C22.9862 2.97591 23.5847 2.0586 24.4243 1.40172C25.264 0.744844 26.2973 0.385494 27.3626 0.379948C28.4279 0.374402 29.465 0.722974 30.3113 1.37108C31.1577 2.01918 31.7657 2.93021 32.04 3.96149C32.333 4.98789 32.2674 6.08376 31.8541 7.06773C31.4408 8.05171 30.7045 8.86481 29.7671 9.37247C29.1028 9.72548 28.9844 10.1162 28.9898 10.7737C29.0113 15.511 28.9898 20.2483 28.9898 24.9856L29.014 26.1632ZM27.4351 6.83405C27.7552 6.83076 28.067 6.73219 28.331 6.55087C28.5951 6.36956 28.7993 6.11369 28.9178 5.81579C29.0362 5.51789 29.0636 5.19143 28.9964 4.8779C28.9292 4.56437 28.7705 4.27794 28.5404 4.05503C28.3103 3.83211 28.0192 3.68278 27.7042 3.62602C27.3892 3.56926 27.0644 3.60763 26.7712 3.73625C26.478 3.86488 26.2296 4.07795 26.0576 4.34838C25.8855 4.6188 25.7977 4.93437 25.8051 5.25495C25.8184 5.67887 25.9961 6.0809 26.3004 6.37573C26.6047 6.67056 27.0118 6.83496 27.4351 6.83405Z" fill="#145594"/>
<path d="M12.9482 13.2259V6.89062H16.0872V10.0596H22.5184V13.2259H12.9482Z" fill="#145594"/>
<path d="M12.9697 0.431641H16.071V3.53595H12.9697V0.431641Z" fill="#145594"/>
<path d="M41.8207 3.59246H38.7598V0.453125H41.8207V3.59246Z" fill="#145594"/>
<path d="M51.6436 19.79H54.7475V22.9051H51.6436V19.79Z" fill="#145594"/>
<path d="M28.9682 68.2461V71.3504H12.9453V68.2461H28.9682Z" fill="#145594"/>
<path d="M28.9662 74.6846V77.7889H12.9648V74.6846H28.9662Z" fill="#145594"/>
<path d="M22.4866 84.28H12.9648V81.1406H22.4866V84.28Z" fill="#145594"/>
<path d="M22.5181 90.7336H12.9668V87.5996H22.5181V90.7336Z" fill="#145594"/>
<path d="M35.381 93.9616H32.2959V90.8223H35.381V93.9616Z" fill="#145594"/>
<path d="M41.8549 93.9596H38.751V90.8311H41.8549V93.9596Z" fill="#145594"/>
<path d="M48.3103 90.8477V93.9439H45.1875V90.8477H48.3103Z" fill="#145594"/>
<path d="M72.5052 31.0598C72.8255 31.054 73.1404 31.1438 73.4097 31.3178C73.6789 31.4918 73.8904 31.7423 74.0171 32.0371C74.1438 32.332 74.18 32.658 74.1211 32.9735C74.0622 33.2891 73.9109 33.5799 73.6864 33.809C73.4619 34.0381 73.1745 34.1951 72.8606 34.2599C72.5468 34.3247 72.2208 34.2945 71.9242 34.173C71.6276 34.0516 71.3737 33.8444 71.1951 33.5779C71.0164 33.3114 70.921 32.9977 70.9209 32.6767C70.9208 32.2529 71.0868 31.8461 71.3831 31.5438C71.6794 31.2414 72.0823 31.0676 72.5052 31.0598Z" fill="#145594"/>
</svg>
