<svg width="100" height="106" viewBox="0 0 100 106" fill="none" xmlns="http://www.w3.org/2000/svg">
<path d="M24.5006 105.802C23.498 105.311 22.3987 104.95 21.5115 104.299C20.8104 103.792 20.2408 103.125 19.8507 102.352C19.4606 101.579 19.2613 100.724 19.2697 99.8582C19.2285 94.166 19.1379 88.4696 19.317 82.7815C19.4879 77.3615 22.5037 73.6842 27.1665 71.232C30.2729 69.5821 33.6799 69.0005 37.0725 68.3446C40.9345 67.6001 44.7882 66.8185 48.6563 66.1028C49.3336 65.977 49.4962 65.7233 49.5642 65.0531C49.7577 63.1247 49.276 61.7532 47.6044 60.4539C44.5762 58.1007 42.991 54.7369 42.392 50.9503C42.2911 50.311 42.0688 50.0449 41.4409 49.8737C39.5058 49.3478 38.353 47.8567 38.1903 45.85C38.1564 45.4742 38.1502 45.0965 38.1718 44.7198C38.2645 43.4308 38.0606 42.4511 36.8955 41.4818C34.7298 39.6813 35.4195 36.0907 37.9598 34.8388C38.2336 34.7047 38.5239 34.5975 38.6103 34.5624C38.9726 32.2237 39.1064 29.9427 39.6993 27.7874C42.0255 19.3192 49.6753 13.5568 58.4327 13.33C62.9904 13.2165 67.3073 13.9095 71.1672 16.4731C77.0013 20.3442 80.0193 25.8282 80.3692 32.8156C80.396 33.358 80.3692 33.9045 80.3692 34.4655C82.1746 35.0657 83.3089 36.1897 83.5374 38.0603C83.7433 39.7803 83.1072 41.1209 81.7032 42.15C81.3882 42.379 81.1803 42.8595 81.0856 43.2617C80.9806 43.7175 81.0609 44.2166 81.0609 44.7054C81.0609 47.964 80.1366 49.2179 77.0055 50.1563C76.6905 52.6023 76.0708 55.0277 74.5742 57.0262C73.3164 58.707 71.7107 60.1198 70.2903 61.6872C70.0033 61.9826 69.8136 62.3591 69.7468 62.7658C69.6727 63.7867 69.7221 64.8159 69.7221 65.9254C72.1451 66.3977 74.5289 66.8308 76.8984 67.3341C81.0156 68.2065 85.1534 68.9654 89.2027 70.0688C92.3778 70.9145 95.1917 72.7729 97.2189 75.363C98.9029 77.4997 99.8951 79.9436 99.9281 82.6557C100.01 88.3479 100.022 94.0415 99.9631 99.7365C99.9363 102.587 98.098 104.806 95.3559 105.606C95.1624 105.662 94.9792 105.748 94.7918 105.812L24.5006 105.802ZM87.2038 102.708H93.1985C95.6894 102.708 96.904 101.492 96.904 98.9837C96.904 94.0443 96.9204 89.1048 96.904 84.1654C96.9145 83.1378 96.8221 82.1118 96.6281 81.1027C95.8726 77.5182 93.4908 75.3403 90.2464 73.81C90.1414 74.1153 90.0735 74.3029 90.0117 74.4927C88.3484 79.7168 87.5064 85.0831 87.2367 90.5506C87.1791 91.7076 86.5718 92.2747 85.5899 92.2005C84.6079 92.1262 84.0459 91.4642 84.1818 90.3196C84.6326 86.5474 85.0587 82.7691 85.6681 79.0197C86.0181 76.8748 86.6974 74.7855 87.247 72.6448C87.1295 72.5777 87.0053 72.5231 86.8765 72.4818C83.3563 71.7744 79.8381 71.0608 76.3097 70.3988C76.0523 70.3493 75.6118 70.605 75.4409 70.8587C71.2907 76.8191 67.1577 82.7925 63.0419 88.779C61.9759 90.2669 61.358 92.0297 61.2612 93.8587C61.1686 96.1871 61.1871 98.5197 61.1603 100.852C61.1603 101.457 61.1603 102.061 61.1603 102.657H84.1324C84.1324 100.801 84.1324 99.0291 84.1324 97.2493C84.1324 96.0283 84.7046 95.358 85.6845 95.3601C86.6644 95.3622 87.2038 96.0304 87.21 97.2575C87.2079 99.025 87.2017 100.803 87.2017 102.715L87.2038 102.708ZM31.786 72.5602C35.3783 82.4597 35.2651 92.5552 35.0963 102.638H58.0559C58.0559 100.13 58.0312 97.6886 58.0559 95.2611C58.0941 92.7401 57.3202 90.2739 55.8491 88.2283C51.8582 82.4907 47.8864 76.7386 43.9339 70.9721C43.5222 70.3741 43.131 70.2771 42.4929 70.4132C40.6854 70.7989 38.8697 71.1351 37.0581 71.496C35.3762 71.8342 33.6779 72.1787 31.786 72.5602ZM77.973 42.8719H41.2453C41.2453 43.5896 41.2453 44.2372 41.2453 44.8827C41.2453 46.6461 41.515 46.9163 43.2483 46.9596C44.6606 46.9946 45.1896 47.4793 45.2452 48.8549C45.6322 58.2554 54.9742 63.3928 62.3317 61.8584C69.226 60.4147 73.4811 55.5845 74.0184 48.6239C74.1028 47.535 74.6175 47.0256 75.7065 46.9616C76.0482 46.9431 76.394 46.9616 76.7358 46.9266C77.5222 46.8296 77.9709 46.413 77.9709 45.5736C77.9689 44.6889 77.973 43.8144 77.973 42.8719ZM58.0662 16.3514C56.8311 16.5576 55.7627 16.7515 54.6901 16.9103C53.9037 17.0279 53.6093 17.43 53.6958 18.2344C53.7442 18.9533 53.7442 19.6748 53.6958 20.3937C53.6608 21.3754 53.0782 21.9818 52.1951 21.9921C51.3119 22.0024 50.6943 21.4064 50.6326 20.435C50.5955 19.8678 50.6326 19.2965 50.6326 18.6737C45.0887 21.3383 41.3442 28.4412 42.0853 34.2881H77.2298C77.7651 26.6222 72.7215 20.4824 68.596 18.7149C68.596 19.3336 68.6351 19.9173 68.596 20.4865C68.5157 21.4559 67.8714 22.0354 66.9924 21.9921C66.1545 21.9508 65.5946 21.3734 65.5513 20.435C65.5122 19.5791 65.5719 18.719 65.5122 17.8652C65.4937 17.593 65.2755 17.1537 65.0717 17.1042C63.8365 16.8031 62.5581 16.5906 61.1603 16.3225C61.1603 16.9413 61.1603 17.3537 61.1603 17.7662C61.1603 19.8926 61.1603 22.0189 61.1397 24.1452C61.1397 24.8856 60.7527 25.3827 60.0157 25.5332C59.2788 25.6838 58.6076 25.5147 58.2844 24.7825C58.1293 24.3663 58.0592 23.923 58.0786 23.4791C58.0559 21.1774 58.0662 18.884 58.0662 16.3514ZM31.9878 102.686C32.2142 92.912 32.2677 83.2311 28.9616 73.8121C25.4393 75.5115 22.7158 77.9616 22.5099 81.9689C22.2093 87.8529 22.3246 93.7617 22.3411 99.6602C22.3411 101.261 23.5577 102.583 25.0708 102.657C27.3518 102.768 29.6471 102.686 31.9878 102.686ZM66.6321 63.7764C61.922 65.6965 57.3025 65.6594 52.6171 63.795C52.6171 64.8262 52.6624 65.6738 52.6171 66.5256C52.5306 67.8497 52.9156 69.0438 53.8976 69.8564C55.6 71.265 57.4219 72.5375 59.2211 73.8162C59.3486 73.8814 59.4897 73.9154 59.6328 73.9154C59.776 73.9154 59.9171 73.8814 60.0446 73.8162C61.8438 72.5293 63.6986 71.298 65.3475 69.8378C66.0166 69.2439 66.4036 68.159 66.5827 67.233C66.7948 66.175 66.6321 65.0572 66.6321 63.7764ZM59.6637 39.7102H78.6544C78.9611 39.7102 79.3523 39.8154 79.5602 39.6669C79.9307 39.4008 80.4227 38.9863 80.433 38.6213C80.4433 38.2562 79.9842 37.7963 79.6096 37.5282C79.3811 37.3611 78.9467 37.4622 78.605 37.4622H40.6236C40.2839 37.4622 39.8537 37.3591 39.6211 37.5241C39.2485 37.7901 38.7729 38.2418 38.7791 38.6089C38.7853 38.976 39.2835 39.3947 39.6561 39.6648C39.8619 39.8133 40.2531 39.7102 40.5598 39.7102H59.6637ZM54.371 80.6716L59.6225 88.2881L64.8741 80.6675C63.2704 79.725 61.7553 78.7969 60.199 77.9493C60.0175 77.8672 59.8206 77.8248 59.6215 77.8248C59.4224 77.8248 59.2256 77.8672 59.0441 77.9493C57.4857 78.799 55.9726 79.7271 54.371 80.6716ZM56.4091 75.8518C53.7205 74.0761 51.1987 72.3148 49.9121 69.3222C49.8565 69.1923 49.5003 69.1036 49.3212 69.1325C48.4978 69.2624 47.6744 69.4418 46.7377 69.6275C48.3846 72.0034 49.8997 74.272 51.4993 76.485C52.2774 77.5615 53.4488 77.6915 54.5748 76.9923L56.4091 75.8518ZM69.4545 69.0314C68.1555 72.2137 65.5699 74.0554 62.8237 75.8683C63.5463 76.3117 64.1762 76.7139 64.8205 77.0913C65.8046 77.6647 66.908 77.5822 67.5832 76.6665C69.2589 74.3978 70.8358 72.0405 72.5239 69.613L69.4545 69.0314Z" fill="#145594"/>
<path d="M51.104 9.67515C50.2805 10.5599 49.5724 11.3869 48.8004 12.1624C47.3594 13.6061 45.943 13.7752 44.1356 12.9358C42.466 12.1603 40.7594 11.4509 39.0323 10.8115C37.1569 10.1165 36.2635 8.97805 36.2408 6.97546C36.2408 6.08243 36.2223 5.18941 36.2408 4.29433C36.2532 3.75604 36.1029 3.46937 35.4915 3.46937C33.6772 3.49274 31.8621 3.49274 30.0464 3.46937C29.4638 3.46937 29.2456 3.70861 29.2539 4.26546C29.2662 5.25953 29.2724 6.25568 29.2539 7.24976C29.2168 8.93474 28.3543 10.0794 26.8062 10.6919C24.902 11.4447 23.0081 12.2243 21.1347 13.0492C19.5887 13.7278 18.1209 13.536 16.894 12.3109C16.052 11.4694 15.2821 10.5579 14.4833 9.68133L9.51385 14.7755C10.1314 15.3942 10.8231 16.1284 11.5334 16.8379C13.3346 18.6549 13.4767 19.8882 12.3568 22.1816C11.6559 23.6271 11.0454 25.1149 10.5288 26.6364C9.78148 28.8019 8.72747 29.6434 6.46094 29.6557C5.67455 29.6557 4.88611 29.6825 4.09972 29.6557C3.4245 29.6269 3.09511 29.8207 3.11364 30.5797C3.15687 32.3265 3.14658 34.0858 3.11364 35.8285C3.11364 36.4637 3.35244 36.6782 3.96178 36.6535C4.8861 36.6225 5.81453 36.6328 6.73679 36.6535C8.57307 36.6885 9.72178 37.5754 10.3723 39.2769C11.0825 41.133 11.8504 42.9562 12.6532 44.767C13.3511 46.3406 13.1741 47.7863 11.9924 49.032C11.2143 49.857 10.4093 50.6469 9.61884 51.4554C9.55482 51.5673 9.5024 51.6854 9.46239 51.808L12.4289 54.7841C14.2816 56.6402 14.2816 56.6402 16.1529 54.7552C16.3937 54.5139 16.6325 54.2664 16.8796 54.0292C18.1827 52.7774 19.5805 52.5856 21.2027 53.3177C23.0074 54.1234 24.8347 54.8796 26.6847 55.5864C28.3316 56.2236 29.2148 57.3642 29.2477 59.1564C29.2669 60.1188 29.2669 61.0813 29.2477 62.0438C29.2354 62.6068 29.4659 62.8687 30.0341 62.8584C31.8498 62.8474 33.6655 62.8474 35.4812 62.8584C36.0658 62.8584 36.249 62.5903 36.2367 62.0334C36.2099 61.0394 36.2038 60.0432 36.2367 59.0491C36.2943 57.4343 37.2248 56.1618 38.6473 55.6771C39.5428 55.3739 40.2942 55.6482 40.6421 56.4072C40.99 57.1662 40.7698 58.0303 39.9772 58.4201C39.4028 58.7006 39.2876 59.0801 39.302 59.6431C39.3287 60.6372 39.3349 61.6333 39.302 62.6274C39.232 64.3743 37.9474 65.8076 36.2017 65.8798C33.9125 65.9747 31.611 65.9768 29.3218 65.8798C27.5144 65.8035 26.2524 64.331 26.1804 62.4294C26.1433 61.4353 26.1433 60.4406 26.1804 59.4451C26.201 58.8594 25.9457 58.6305 25.4187 58.4263C23.6071 57.7189 21.8326 56.9145 20.0169 56.2175C19.8279 56.1637 19.6294 56.1522 19.4355 56.1839C19.2416 56.2157 19.057 56.2898 18.895 56.401C18.1374 57.0362 17.4828 57.7973 16.7643 58.482C15.2697 59.905 13.277 59.9257 11.7886 58.5067C10.3003 57.0878 8.84686 55.6194 7.43054 54.1365C6.01421 52.6536 6.06362 50.6655 7.50671 49.162C8.17164 48.4711 8.84481 47.7843 9.54474 47.1284C9.95646 46.7386 9.9894 46.3942 9.7506 45.8642C8.96146 44.0836 8.21625 42.2845 7.51495 40.4669C7.30909 39.9244 7.04148 39.71 6.4733 39.7244C5.444 39.7533 4.41469 39.7574 3.38539 39.7244C2.50106 39.7116 1.65651 39.354 1.03113 38.7274C0.405749 38.1009 0.0487901 37.2548 0.0360257 36.3689C-0.0120086 34.2432 -0.0120086 32.1162 0.0360257 29.9878C0.0771979 28.0471 1.5635 26.6426 3.5727 26.5807C4.56701 26.5497 5.56546 26.6302 6.54947 26.5394C6.74279 26.4999 6.92498 26.418 7.083 26.2996C7.24102 26.1812 7.37094 26.0293 7.46348 25.8547C8.26017 24.0769 8.94775 22.2517 9.74032 20.4739C9.97912 19.9377 9.94618 19.6056 9.53446 19.2158C8.81189 18.5352 8.10577 17.832 7.4326 17.1019C6.02657 15.5777 6.05129 13.6164 7.50055 12.1273C8.89492 10.7029 10.3023 9.29635 11.7228 7.90766C13.2482 6.41448 15.2224 6.39386 16.7684 7.84579C17.4683 8.50164 18.1518 9.17811 18.8023 9.88345C19.214 10.3372 19.5763 10.3619 20.1425 10.1062C21.8861 9.32041 23.6565 8.59444 25.4393 7.90766C25.9745 7.70142 26.2092 7.456 26.1865 6.87646C26.1515 5.91538 26.1577 4.9543 26.1865 3.98909C26.2462 1.83388 27.6955 0.410819 29.855 0.392257C31.8066 0.375758 33.7588 0.375758 35.7117 0.392257C37.8692 0.412881 39.2896 1.85038 39.3205 4.02003C39.3349 4.98111 39.2649 5.94838 39.3576 6.9074C39.3954 7.10246 39.4754 7.28684 39.5921 7.44755C39.7088 7.60826 39.8592 7.74138 40.0328 7.83754C41.8375 8.65013 43.6648 9.41116 45.5148 10.1206C45.7069 10.1736 45.9082 10.1837 46.1045 10.1502C46.3009 10.1167 46.4875 10.0404 46.6512 9.92676C47.3635 9.3431 47.9708 8.63363 48.6336 7.98603C50.402 6.25774 52.7509 6.41654 54.2557 8.35521C54.8033 9.06055 54.7868 9.74527 54.2022 10.399C53.6175 11.0528 52.8106 11.0776 52.0921 10.5145C51.8265 10.3042 51.5754 10.0753 51.104 9.67515Z" fill="#145594"/>
<path d="M18.2502 33.9749C18.2502 23.304 27.8784 16.2795 37.2492 19.3318C37.3789 19.3751 37.5065 19.4226 37.6341 19.47C38.7211 19.8825 39.1328 20.5899 38.824 21.5015C38.5152 22.4131 37.7288 22.7637 36.6501 22.3883C34.78 21.7182 32.7683 21.5459 30.8117 21.8884C28.8552 22.2308 27.021 23.0763 25.4885 24.342C23.9559 25.6078 22.7777 27.2504 22.069 29.1092C21.3602 30.968 21.1453 32.9793 21.4452 34.9463C22.281 40.4591 27.1558 44.6396 32.7676 44.654C33.2102 44.654 33.6878 44.5984 34.0892 44.7407C34.8838 45.0191 35.1308 45.6935 34.995 46.4875C34.8282 47.4527 34.116 47.694 33.2555 47.7353C27.5572 48.0034 22.0196 44.5839 19.5678 39.2794C18.6887 37.3449 18.2379 35.3217 18.2502 33.9749Z" fill="#145594"/>
</svg>
