<svg width="100" height="101" viewBox="0 0 100 101" fill="none" xmlns="http://www.w3.org/2000/svg">
<path d="M34.3535 0.8125C35.6547 1.35945 37.093 1.71233 38.2318 2.49453C40.7757 4.22948 41.6817 6.83878 41.6758 9.86172C41.6562 22.8736 41.6562 35.8834 41.6758 48.8913C41.6758 53.065 41.6954 57.2387 41.6562 61.4124C41.6425 62.1561 41.4974 62.8915 41.2277 63.5845C39.9812 66.7996 38.6702 69.9911 37.3846 73.1905C37.2652 73.4885 37.1615 73.7924 37.0049 74.2138C37.5196 74.2531 37.9579 74.2746 38.3903 74.3236C39.3687 74.4334 40.0047 75.0901 40.0027 75.9645C40.0122 76.3798 39.8568 76.7819 39.5706 77.0825C39.2845 77.3832 38.891 77.5578 38.4764 77.5681C36.5196 77.621 34.5628 77.623 32.6315 77.4857C31.4809 77.4054 30.7001 76.5663 30.2716 75.5253C28.5601 71.3431 26.8726 67.1466 25.2094 62.9356C25.0137 62.4416 25.0137 61.8476 25.0137 61.3007C25.002 49.3684 25.002 37.4347 25.0137 25.4998V24.302H20.0278V25.6743C20.0278 44.8862 20.0278 64.0916 20.0278 83.2905C20.0437 83.7778 20.003 84.2653 19.9065 84.7431C19.7108 85.5391 19.1492 85.9488 18.341 85.9429C17.5329 85.937 16.9713 85.5175 16.7756 84.7235C16.621 84.0609 16.6171 83.3611 16.441 82.7063C15.5409 79.356 12.77 77.4465 9.26346 77.719C6.23043 77.9523 3.69834 80.4165 3.46352 83.7041C3.27078 86.336 3.27078 88.9785 3.46352 91.6104C3.72573 95.1117 6.33414 97.4465 9.85832 97.6583C10.1186 97.674 10.3788 97.672 10.641 97.672C33.0059 97.672 55.3694 97.672 77.7317 97.672C80.6493 97.672 82.9348 96.5781 84.2654 93.908C84.6568 93.1435 84.7096 92.224 84.9562 91.3889C85.1186 90.842 85.2027 90.1362 85.5863 89.8206C85.9698 89.505 86.8132 89.3226 87.2456 89.5265C87.7192 89.75 88.224 90.4714 88.2475 90.9949C88.361 93.8982 87.181 96.3232 85.0971 98.2856C83.0874 100.181 80.6571 101.005 77.8941 101.003C55.4327 100.988 32.9713 100.988 10.5099 101.003C4.35387 101.003 0.00782718 96.6545 0.00587038 90.4793C-0.00195679 66.318 -0.00195679 42.1567 0.00587038 17.9954C0.00587038 12.2554 3.88423 8.02482 9.5061 7.56805C14.4392 7.1642 19.4134 11.2634 19.8771 16.2056C20.02 17.717 19.8986 19.256 19.8986 20.8439H24.9863V19.7892C24.9863 16.4957 25.0333 13.2003 24.9746 9.90876C24.8845 4.99012 28.0389 1.5006 32.2147 0.918357C32.2757 0.895893 32.3326 0.863433 32.383 0.8223L34.3535 0.8125ZM3.33828 76.7996C7.85456 73.4904 12.2026 73.512 16.6856 76.778V75.4058C16.6856 56.531 16.6856 37.6556 16.6856 18.7796C16.6856 18.1287 16.6523 17.4759 16.5975 16.8192C16.2512 12.7945 12.136 9.9911 8.26158 11.134C5.07592 12.073 3.34416 14.5647 3.34416 18.2463C3.34416 37.3825 3.34416 56.5193 3.34416 75.6567L3.33828 76.7996ZM31.6629 57.6406V56.5094C31.6629 47.7072 31.6629 38.9051 31.6629 30.1029C31.6411 29.6156 31.6966 29.1279 31.8273 28.658C32.0797 27.8935 32.6843 27.5328 33.4964 27.6092C33.8427 27.6213 34.174 27.7537 34.4335 27.9837C34.6931 28.2137 34.8647 28.5269 34.919 28.8698C34.9804 29.2586 35.002 29.6527 34.9836 30.046C34.9836 35.9795 34.9836 41.913 34.9836 47.8464C34.9836 50.8772 34.9738 53.91 34.9992 56.9407C34.9992 57.2289 35.1734 57.6896 35.3808 57.77C36.3063 58.1287 37.275 58.3777 38.2397 58.6698V17.6151H28.3931V58.6973L31.6629 57.6406ZM28.4929 14.1354H38.2769C38.2769 12.2926 38.3512 10.5067 38.2592 8.7286C38.1281 6.25849 36.1518 4.41572 33.5825 4.21968C31.2774 4.03736 28.8255 5.73899 28.5359 8.06402C28.2972 10.0303 28.4929 12.0613 28.4929 14.1354ZM28.7022 62.7788L33.2812 74.1335C33.3777 74.0307 33.4636 73.9184 33.5375 73.7982C34.9523 70.2989 36.3533 66.7937 37.7857 63.3022C37.997 62.7925 37.815 62.5612 37.4511 62.2515C35.2986 60.4185 30.7823 60.4283 28.7022 62.7788Z" fill="#145594"/>
<path d="M99.9901 70.2752C99.09 73.059 96.5344 72.9492 94.1882 73.5001L95.7106 75.831C96.8671 77.6149 96.7183 79.1636 95.2351 80.6692C94.4348 81.4808 93.6384 82.2983 92.8145 83.0845C91.5328 84.3078 89.942 84.4567 88.4392 83.5216C87.6173 83.006 86.8189 82.4493 85.8816 81.8259C85.6859 82.7492 85.504 83.5589 85.3455 84.3744C84.9013 86.6583 83.7018 87.6522 81.3556 87.6581C80.3126 87.6581 79.2716 87.6757 78.2247 87.6581C76.4068 87.6169 75.1506 86.5995 74.7455 84.839C74.5264 83.8882 74.3541 82.9296 74.1135 81.822C73.3033 82.3591 72.548 82.859 71.8084 83.3491C69.9885 84.543 68.4642 84.3822 66.9046 82.8335C66.0965 82.0317 65.2766 81.2378 64.4939 80.4085C63.9459 79.8632 63.603 79.1448 63.5235 78.3752C63.4439 77.6055 63.6326 76.832 64.0575 76.1858C64.5956 75.3056 65.1807 74.4548 65.799 73.5079C64.7267 73.2844 63.7777 73.1041 62.8384 72.8865C61.1008 72.4826 60.0539 71.273 59.9893 69.5244C59.9424 68.256 59.9424 66.9758 59.9893 65.7114C60.0539 63.996 61.0734 62.7825 62.7484 62.3787C63.6935 62.1513 64.6524 61.9866 65.7853 61.7435C65.2942 60.9829 64.8559 60.2909 64.4156 59.6086C63.0713 57.5718 63.2122 56.125 64.9341 54.392C65.6679 53.653 66.392 52.9041 67.1434 52.1807C68.4564 50.9182 70.0472 50.7653 71.5951 51.7474C72.413 52.267 73.2133 52.8139 74.1154 53.4118C74.3483 52.314 74.5361 51.3358 74.7612 50.3673C75.1525 48.652 76.4264 47.6228 78.1738 47.5934C79.4105 47.5738 80.6472 47.5698 81.8917 47.5934C82.6635 47.585 83.4146 47.8435 84.0185 48.3252C84.6223 48.8069 85.0418 49.4824 85.2065 50.2379C85.459 51.2358 85.6448 52.2493 85.8914 53.4059C86.7583 52.8316 87.5058 52.3316 88.2572 51.8376C89.9792 50.7163 91.5328 50.8711 93.0141 52.3218C93.8282 53.1197 94.6422 53.9176 95.4269 54.7449C96.6831 56.0721 96.8299 57.6639 95.8495 59.2068C95.3466 59.9909 94.8144 60.7751 94.1902 61.72C96.4503 62.265 98.9804 62.1885 99.9999 64.7939L99.9901 70.2752ZM96.6636 65.6604C95.6049 65.4408 94.6461 65.2683 93.701 65.039C91.0339 64.3979 90.0574 62.0199 91.5113 59.7086C92.0299 58.8833 92.5856 58.0815 93.11 57.2934L90.2844 54.5038C89.5252 55.0096 88.719 55.5624 87.905 56.0721C85.592 57.5345 83.2086 56.5661 82.5727 53.9039C82.3418 52.9237 82.1559 51.9435 81.9387 50.9162C80.7646 50.9162 79.6668 50.8868 78.5671 50.9417C78.4292 50.9715 78.3006 51.0346 78.1925 51.1254C78.0844 51.2163 78 51.3322 77.9468 51.4632C77.7277 52.2473 77.6318 53.0589 77.4459 53.851C76.808 56.5681 74.3992 57.5502 72.051 56.0544C71.235 55.533 70.4347 54.9841 69.7929 54.5567L66.9399 57.3738C67.4506 58.158 68.0298 58.9754 68.5523 59.838C69.875 62.02 68.9006 64.3901 66.4213 65.0096C65.4214 65.2585 64.4019 65.4389 63.3178 65.6683C63.3178 66.8582 63.2944 67.9952 63.3413 69.1284C63.3413 69.3244 63.6407 69.6106 63.852 69.6675C64.6034 69.8635 65.3803 69.9733 66.1415 70.1439C68.9612 70.7751 69.9592 73.2138 68.3977 75.6467C67.8909 76.4309 67.3704 77.215 66.8714 77.9737L69.6618 80.7477C70.5462 80.1713 71.4424 79.5244 72.4013 78.9833C74.4363 77.8169 76.716 78.7637 77.3402 81.0241C77.5829 81.9004 77.7042 82.81 77.9273 83.6922C77.9879 83.9255 78.2208 84.2803 78.3871 84.2921C79.5749 84.345 80.7666 84.3195 81.9485 84.3195C82.1696 83.257 82.3398 82.3297 82.557 81.4122C83.1989 78.6402 85.594 77.6875 88.0008 79.2303C88.7836 79.7361 89.5663 80.2595 90.2296 80.6986C91.208 79.7184 92.1336 78.8225 93.0689 77.8972C92.4995 77.0229 91.842 76.1329 91.3078 75.1527C90.1905 73.1452 91.1434 70.8966 93.3527 70.2772C94.2587 70.0243 95.2038 69.9106 96.1117 69.6636C96.2421 69.6129 96.3583 69.5313 96.4503 69.4258C96.5423 69.3203 96.6075 69.194 96.6401 69.0578C96.689 67.9619 96.6616 66.8543 96.6616 65.6604H96.6636Z" fill="#145594"/>
<path d="M79.1762 20.0006L81.9783 20.5887C83.9077 20.9808 84.9565 22.2335 84.9781 24.2076C84.9918 25.4133 84.9996 26.6209 84.9781 27.8265C84.9389 29.5301 83.9057 30.7671 82.2386 31.1592C81.2602 31.3788 80.2818 31.5709 79.1977 31.8003C79.7847 32.6785 80.3033 33.4549 80.8081 34.2429C81.8433 35.8583 81.6867 37.4796 80.3542 38.8558C79.5147 39.7203 78.6713 40.5829 77.7986 41.4043C76.5736 42.5668 74.9338 42.7217 73.4936 41.8277C72.6444 41.2984 71.8186 40.7279 70.8833 40.1104C70.6739 41.1357 70.4919 42.0551 70.2962 42.9746C69.9264 44.7683 68.7308 45.8407 66.9208 45.9152C65.6528 45.9661 64.3769 45.9661 63.1148 45.9152C61.2891 45.8387 60.115 44.8036 59.7237 42.9824C59.528 42.061 59.3323 41.1377 59.1229 40.1085C58.2757 40.6652 57.4988 41.1847 56.7141 41.6925C55.0626 42.7609 53.4385 42.604 52.0178 41.2239C51.1803 40.4045 50.3448 39.5811 49.5405 38.7303C48.3449 37.4639 48.1943 35.8171 49.1237 34.341C49.6423 33.5176 50.1941 32.7158 50.8046 31.7924C49.7479 31.569 48.7813 31.3729 47.8205 31.1573C46.0927 30.7652 45.0693 29.5595 45.0145 27.7775C44.9753 26.5072 44.9734 25.229 45.0145 23.9646C45.0751 22.2002 46.1396 20.9789 47.8577 20.6064C48.8028 20.4104 49.7519 20.2143 50.8046 20.0183C50.2176 19.1204 49.6892 18.3421 49.1844 17.5521C48.1571 15.9485 48.3273 14.3076 49.6638 12.9412C50.5072 12.0786 51.3467 11.2161 52.2194 10.3927C52.7646 9.84574 53.4808 9.50306 54.2481 9.42204C55.0155 9.34103 55.7873 9.5266 56.4343 9.94768C57.3149 10.4868 58.1661 11.0769 59.1112 11.6983C59.3323 10.628 59.5221 9.67323 59.7296 8.72243C60.1209 6.95807 61.3713 5.92495 63.1911 5.89946C64.3952 5.88247 65.5993 5.88247 66.8034 5.89946C68.5958 5.92691 69.8853 6.98944 70.261 8.73812C70.4567 9.68499 70.6524 10.6358 70.8637 11.712C71.7599 11.1239 72.5329 10.5887 73.3214 10.081C74.9358 9.04395 76.5521 9.20861 77.9258 10.5515C78.7163 11.3239 79.499 12.108 80.2739 12.904C81.6828 14.3429 81.8394 15.9642 80.7181 17.6736C80.2544 18.3853 79.7671 19.1145 79.1762 20.0006ZM81.6398 23.9371C80.6105 23.7195 79.683 23.5352 78.7672 23.3313C76.0629 22.7315 75.0493 20.2986 76.5208 17.9579C77.0394 17.1384 77.5892 16.3386 78.2506 15.3388C77.7418 14.9075 77.2253 14.5115 76.7615 14.0606C76.2977 13.6097 75.8907 13.1157 75.472 12.6511C74.5151 13.2843 73.7363 13.8136 72.9438 14.3194C70.5663 15.8387 68.1379 14.8134 67.5509 12.0414C67.3552 11.1024 67.1497 10.1633 66.9521 9.24391H63.0502C62.8546 10.1731 62.6765 11.0906 62.4867 12.0081C61.9192 14.7683 59.4576 15.8348 57.0898 14.337C56.268 13.8175 55.4657 13.2686 54.8043 12.8334L51.9396 15.6152C52.5012 16.4739 53.1352 17.3443 53.6635 18.2735C54.8376 20.3437 53.8396 22.6707 51.5443 23.2745C50.8872 23.4613 50.2166 23.5963 49.5386 23.6783C48.6424 23.7646 48.2099 24.092 48.3449 25.082C48.4662 25.9759 48.1042 27.1639 48.5621 27.7187C49.02 28.2735 50.2274 28.2245 51.106 28.4088C53.9042 28.9969 54.9726 31.4827 53.4345 33.8979C52.9277 34.6821 52.3974 35.4662 51.9435 36.1524C52.9101 37.1208 53.8142 38.0304 54.7671 38.9891C55.5127 38.4931 56.311 37.9344 57.1348 37.4207C59.4145 35.9955 61.8664 37.0424 62.4671 39.6674C62.6882 40.6319 62.6784 41.9689 63.2987 42.4315C63.9543 42.9216 65.236 42.5374 66.2339 42.5982C66.821 42.6354 67.0401 42.3747 67.1282 41.8454C67.2495 41.1083 67.3963 40.3731 67.5587 39.6419C68.1457 37.0189 70.6054 35.9975 72.889 37.4325C73.5758 37.8658 74.2235 38.3676 74.928 38.7675C75.0568 38.8238 75.1972 38.8484 75.3375 38.8392C75.4777 38.83 75.6138 38.7873 75.7342 38.7146C76.5971 37.9873 77.4111 37.1973 78.235 36.4386C77.5207 35.3486 76.8926 34.4782 76.3564 33.549C75.1824 31.518 76.0942 29.2361 78.3445 28.5793C79.2153 28.3284 80.1311 28.2323 81.0038 27.9912C81.2582 27.9206 81.6026 27.5815 81.6163 27.3462C81.6848 26.2288 81.6398 25.1212 81.6398 23.9371Z" fill="#145594"/>
<path d="M48.3155 87.6562H64.2242C64.5819 87.6373 64.9406 87.655 65.2946 87.7092C66.0773 87.8719 66.5528 88.3698 66.6057 89.1912C66.6585 90.0126 66.2887 90.5851 65.5196 90.838C65.1455 90.947 64.7566 90.9966 64.3671 90.985C53.6908 90.9928 43.0139 90.9928 32.3363 90.985C31.9477 90.9955 31.5595 90.95 31.1838 90.8497C30.3619 90.5949 29.9725 89.9891 30.0547 89.1363C30.133 88.3247 30.6202 87.8346 31.4245 87.6974C31.7795 87.6535 32.1375 87.6391 32.4948 87.6543L48.3155 87.6562Z" fill="#145594"/>
<path d="M53.3242 80.9947C55.5354 80.9947 57.7485 80.932 59.9538 81.0398C60.2587 81.0826 60.5502 81.1928 60.8074 81.3623C61.0646 81.5318 61.281 81.7565 61.441 82.02C61.6523 82.4454 61.4723 83.2413 61.1846 83.6922C60.9596 84.0451 60.3041 84.2803 59.8364 84.296C55.5132 84.3418 51.1893 84.347 46.8648 84.3117C45.6907 84.3117 45.0176 83.5824 45.0489 82.5807C45.0802 81.5789 45.7553 81.0124 46.9842 80.9927C49.0975 80.9751 51.2108 80.9927 53.3242 80.9927V80.9947Z" fill="#145594"/>
<path d="M50.9175 74.3038C52.706 74.3038 54.4945 74.2881 56.281 74.3038C57.553 74.3175 58.2868 74.9272 58.3141 75.9231C58.3435 76.9523 57.5764 77.6286 56.2595 77.6365C52.6199 77.6561 48.9802 77.6482 45.3406 77.6365C44.5148 77.6365 43.6871 77.413 43.509 76.5131C43.4053 75.9858 43.5462 75.233 43.8828 74.8488C44.2194 74.4645 44.9121 74.3391 45.46 74.3214C47.2798 74.2587 49.0996 74.3038 50.9175 74.3038Z" fill="#145594"/>
<path d="M35.8499 80.9873C37.1473 80.9873 38.4466 80.9697 39.744 80.9873C40.9513 81.0069 41.6264 81.6049 41.6401 82.6086C41.6538 83.6123 40.9709 84.2887 39.7929 84.3063C37.1642 84.3416 34.5363 84.3416 31.9089 84.3063C30.7349 84.2887 30.0422 83.5986 30.0559 82.6106C30.0696 81.6225 30.7486 81.0069 31.9559 80.9873C33.2435 80.9697 34.5408 80.9873 35.8499 80.9873Z" fill="#145594"/>
<path d="M80.3556 77.609C75.1055 77.9482 70.4014 73.6314 70.0394 68.1462C69.6833 62.7218 73.9334 57.9874 79.4907 57.6149C84.7976 57.262 89.6073 61.5828 89.9791 67.0366C90.3509 72.5277 86.0597 77.2444 80.3556 77.609ZM73.3581 67.5914C73.3503 69.3516 74.0395 71.0431 75.2745 72.2952C76.5095 73.5472 78.1897 74.2575 79.9466 74.2705C83.6 74.3195 86.6917 71.2436 86.6604 67.5914C86.6291 63.9392 83.6059 60.926 79.9956 60.926C78.2371 60.9409 76.5551 61.6484 75.3131 62.8957C74.0711 64.1429 73.3689 65.8297 73.3581 67.5914Z" fill="#145594"/>
<path d="M65.0402 35.8799C63.7297 35.8821 62.4315 35.6256 61.2199 35.1252C60.0083 34.6248 58.9069 33.8902 57.9787 32.9633C57.0504 32.0364 56.3135 30.9355 55.81 29.7233C55.3064 28.5111 55.0461 27.2115 55.044 25.8985C55.0418 24.5855 55.2977 23.285 55.7972 22.0711C56.2968 20.8573 57.03 19.7539 57.9552 18.8239C58.8803 17.894 59.9792 17.1557 61.1892 16.6512C62.3991 16.1468 63.6964 15.886 65.007 15.8838C70.4292 15.8838 74.9631 20.4123 74.9866 25.8328C74.9944 28.4856 73.9516 31.0332 72.087 32.9167C70.2224 34.8002 67.6881 35.8659 65.0402 35.8799ZM64.9307 32.5472C66.6945 32.5676 68.3943 31.8854 69.6562 30.6505C70.9181 29.4157 71.6389 27.7293 71.6601 25.9622C71.7109 22.3374 68.7249 19.2812 65.0696 19.2204C61.4495 19.1596 58.4008 22.161 58.3637 25.825C58.3515 26.6991 58.512 27.567 58.836 28.3787C59.1599 29.1905 59.6409 29.93 60.2513 30.5548C60.8616 31.1796 61.5893 31.6772 62.3924 32.0192C63.1954 32.3611 64.0581 32.5406 64.9307 32.5472Z" fill="#145594"/>
</svg>
