<svg width="100" height="101" viewBox="0 0 100 101" fill="none" xmlns="http://www.w3.org/2000/svg">
<path d="M62.6949 0.814944C64.1937 1.90561 64.1278 2.98404 62.5021 3.94509L59.573 5.65689C60.0416 5.80117 60.337 5.90144 60.6397 5.98458C70.4546 8.38599 78.683 13.4138 85.2027 21.1169C90.6118 27.4582 94.1687 35.1724 95.4815 43.4094C95.5718 43.9548 95.6646 44.5001 95.7256 45.0479C95.8452 46.1605 95.3716 46.8746 94.4539 47.0042C93.6264 47.1191 92.9527 46.5273 92.7452 45.5052C92.3669 43.6295 92.0935 41.7221 91.5931 39.8807C88.5859 28.8176 82.2159 20.2414 72.4831 14.1523C68.5878 11.7208 64.3155 9.95631 59.8415 8.93132C59.5974 8.87263 59.3411 8.83106 58.8041 8.72835C59.4485 9.6405 59.9562 10.3546 60.4566 11.0735C60.7311 11.4369 60.9845 11.8157 61.2157 12.2082C61.6282 12.9761 61.4793 13.6755 60.7788 14.189C60.0783 14.7025 59.4241 14.5093 58.8431 13.9567C58.6397 13.7471 58.4567 13.5187 58.2964 13.2744C57.0125 11.4811 55.7326 9.67799 54.4568 7.86512C53.3852 6.3514 53.5366 5.66423 55.111 4.72519C57.3127 3.42096 59.5095 2.11673 61.7015 0.8125L62.6949 0.814944Z" fill="#145594"/>
<path d="M99.9923 63.4891C98.8963 64.9931 97.8223 64.9319 96.8679 63.3082C96.3431 62.4156 95.8232 61.5206 95.1837 60.4275C94.9396 61.3396 94.7467 62.061 94.5564 62.7824C92.3595 71.0602 88.1538 78.1544 82.0124 84.0943C76.0163 89.9401 68.5272 94.0161 60.3687 95.8739C59.0433 96.1845 57.6837 96.4071 56.3485 96.632C56.149 96.6756 55.9428 96.679 55.742 96.6419C55.5412 96.6048 55.3498 96.528 55.1789 96.416C55.0081 96.304 54.8611 96.159 54.7468 95.9896C54.6324 95.8201 54.5529 95.6295 54.5129 95.4289C54.364 94.6268 54.8034 93.9029 55.7016 93.6926C57.154 93.3552 58.6308 93.1497 60.0953 92.7927C71.1747 90.0685 79.7765 83.8204 86.1351 74.4055C88.8885 70.329 91.4222 64.1201 92.1545 59.5569C91.0732 60.3223 90.1016 61.0486 89.0838 61.7064C88.6908 61.9632 88.1343 62.2933 87.7706 62.1955C87.2555 62.0439 86.5672 61.5793 86.4744 61.1366C86.4457 60.8324 86.486 60.5257 86.5926 60.2393C86.6991 59.953 86.869 59.6946 87.0895 59.4835C88.415 58.3904 89.8698 57.4538 91.2757 56.4585C91.8591 56.0453 92.4401 55.6271 93.0259 55.2162C94.4294 54.2381 95.1837 54.3873 96.038 55.8447C97.2845 57.9739 98.5286 60.1063 99.7702 62.242C99.8383 62.3415 99.9151 62.4348 99.9996 62.5207L99.9923 63.4891Z" fill="#145594"/>
<path d="M0.0122017 38.1049C1.11306 36.6083 2.17975 36.6744 3.14392 38.3006C3.65407 39.1638 4.15935 40.0271 4.74761 41.0297C5.27729 39.2641 5.70446 37.6281 6.25855 36.0337C10.0859 25.0227 17.0532 16.6023 27.1602 10.7724C32.0763 7.95054 37.4756 6.07445 43.08 5.24082C44.4152 5.0354 45.2109 5.39977 45.3598 6.38039C45.5087 7.361 44.9033 7.9259 43.5852 8.24625C40.6268 8.97988 37.6025 9.53988 34.7588 10.5914C25.5761 13.9881 18.4168 19.9525 13.242 28.2621C10.7605 32.2379 8.96417 36.6036 7.92813 41.1764C7.87199 41.4209 7.85003 41.6655 7.78413 42.0885C8.92892 41.2791 9.92726 40.5626 10.9378 39.8632C11.9483 39.1638 12.8783 39.2201 13.4153 40.0271C13.9523 40.834 13.7009 41.6117 12.6831 42.3331C10.7547 43.7172 8.81989 45.0915 6.87854 46.4561C5.56044 47.3805 4.83304 47.2215 4.01289 45.8423C2.672 43.5909 1.33437 41.337 0 39.0807L0.0122017 38.1049Z" fill="#145594"/>
<path d="M50.6709 45.3727H57.8424C60.3484 45.3727 62.8544 45.3727 65.3604 45.3727C66.0927 45.3727 66.8616 45.4926 67.0471 46.2384C67.1778 46.8497 67.0741 47.4878 66.7567 48.026C64.8283 50.9239 62.8219 53.7654 60.8228 56.6144C60.1661 57.5534 59.3167 57.798 58.5844 57.3235C57.7984 56.8173 57.691 55.8954 58.3525 54.9295C59.6023 53.1052 60.8765 51.298 62.136 49.4811C62.3361 49.1949 62.5216 48.8966 62.8048 48.4638C62.3361 48.4417 62.0017 48.4124 61.6673 48.4124C57.5356 48.4124 53.4023 48.4124 49.2674 48.4124C47.2561 48.4124 46.6727 47.5956 47.3146 45.7053C48.7548 41.5285 50.1974 37.3542 51.6424 33.1823C51.7812 32.839 51.8381 32.4681 51.8084 32.0989C51.6107 32.3679 51.4105 32.6369 51.2201 32.9108C49.3959 35.5193 47.5742 38.1334 45.7549 40.7533C45.5454 41.0826 45.2926 41.382 45.0031 41.6434C44.4685 42.0836 43.7655 42.1643 43.3213 41.6655C42.9649 41.2693 42.8331 40.6164 42.7574 40.0564C42.7233 39.7703 43.0406 39.4206 43.2456 39.132C47.3659 33.2026 51.4894 27.2766 55.6162 21.3537C55.7822 21.1092 55.9336 20.7619 56.163 20.6886C56.7073 20.5125 57.3835 20.2508 57.8351 20.444C58.2329 20.6128 58.499 21.3195 58.6162 21.8379C58.6967 22.1998 58.4575 22.6498 58.3208 23.0484C55.8799 30.1092 53.4389 37.1691 50.998 44.2283C50.8955 44.5535 50.8101 44.8959 50.6709 45.3727Z" fill="#145594"/>
<path d="M41.4009 93.1642C40.6223 92.0637 39.9681 91.1369 39.3164 90.2101C39.1211 89.9503 38.9426 89.6783 38.7818 89.3957C38.3742 88.6254 38.4987 87.9285 39.209 87.4149C39.9193 86.9014 40.6979 87.0066 41.2032 87.6937C42.8305 89.893 44.4114 92.12 45.9459 94.3746C46.4878 95.167 46.295 95.9862 45.4577 96.4875C43.1519 97.8846 40.8224 99.2451 38.4694 100.569C38.3013 100.67 38.1142 100.736 37.9197 100.763C37.7252 100.789 37.5274 100.776 37.3384 100.723C37.1493 100.67 36.9731 100.579 36.8204 100.455C36.6678 100.332 36.542 100.178 36.4507 100.004C36.2561 99.6592 36.2046 99.2516 36.3073 98.8691C36.4101 98.4866 36.6589 98.16 36.9999 97.9596C37.9763 97.3336 38.982 96.7687 40.1731 96.0546C39.4555 95.8712 38.9649 95.7563 38.4816 95.6218C23.0305 91.3301 12.3636 81.7073 6.61524 66.7657C5.56075 64.0269 5.03352 61.0826 4.33053 58.2067C4.05226 57.0794 4.57462 56.2724 5.51682 56.1037C6.37358 55.9521 7.10099 56.5072 7.29626 57.6321C8.02854 61.8162 9.20262 65.8536 11.0846 69.6709C15.335 78.2984 21.7221 84.8342 30.2459 89.2784C33.7607 91.0989 37.5169 92.4074 41.4009 93.1642Z" fill="#145594"/>
<path d="M49.3363 56.2187H42.7457C40.0461 56.2187 37.3464 56.2187 34.6467 56.2187C33.9145 56.2187 33.148 56.1062 32.9552 55.3628C32.82 54.752 32.9203 54.1126 33.2359 53.5728C34.9909 50.917 36.8338 48.3175 38.6645 45.7107C39.3187 44.7766 40.1535 44.5565 40.9077 45.0602C41.662 45.564 41.7767 46.4615 41.0957 47.4543C39.8313 49.2957 38.5473 51.1225 37.156 53.1277C37.6442 53.1497 37.9859 53.1791 38.3179 53.1791H50.7081C52.7731 53.1791 53.3296 53.9812 52.6462 55.9571C51.2011 60.129 49.7569 64.3009 48.3135 68.4728C48.1903 68.7903 48.1354 69.1303 48.1524 69.4705C48.3135 69.27 48.4844 69.0743 48.6406 68.864C50.3151 66.4659 51.9887 64.0669 53.6616 61.6671C53.8495 61.3629 54.0769 61.0849 54.3377 60.8406C54.904 60.3784 55.6363 60.2928 56.1123 60.8088C56.4662 61.1903 56.6005 61.8677 56.6273 62.4252C56.6468 62.748 56.2953 63.1075 56.0757 63.4254C52.1995 69.0059 48.32 74.5831 44.4373 80.157C44.2152 80.4725 43.9906 80.8907 43.6709 81.0129C43.2022 81.1939 42.5456 81.3553 42.155 81.1572C41.7645 80.9591 41.4716 80.3331 41.3739 79.8489C41.2934 79.4479 41.5302 78.9686 41.6791 78.5406C44.12 71.4831 46.5609 64.4264 49.0019 57.3705C49.1068 57.0428 49.1947 56.7005 49.3363 56.2187Z" fill="#145594"/>
</svg>
