<svg width="98" height="88" viewBox="0 0 98 88" fill="none" xmlns="http://www.w3.org/2000/svg">
<path d="M97.3913 61.2394C96.9111 62.7509 96.1058 64.011 94.5486 64.5749C93.8779 64.8163 93.1387 64.8671 92.2826 65.0347C92.2826 65.3955 92.2953 65.8273 92.2826 66.2566C92.2343 67.7377 91.3427 68.6725 89.8642 68.797C89.5492 68.8224 89.2316 68.797 88.9141 68.797H59.7203C56.9056 68.797 56.2578 68.1746 56.1486 65.3777C56.1486 65.2532 56.113 65.1236 56.0774 64.8848H55.1578C49.9933 64.8848 44.8262 64.8696 39.6616 64.9103C39.147 64.9372 38.6577 65.1419 38.2772 65.4895C36.2449 67.4472 34.2507 69.4414 32.2946 71.472C31.9888 71.8091 31.8093 72.2418 31.7865 72.6964C31.7484 76.3088 31.7688 79.9212 31.7637 83.5362C31.7637 86.0765 30.3741 87.4635 27.8236 87.4712H24.699C23.4288 87.4712 22.7658 86.9631 22.781 86.0155C22.7962 85.068 23.4262 84.626 24.6481 84.6209C25.7557 84.6209 26.8659 84.6209 27.976 84.6209C28.5298 84.6209 28.9185 84.4456 28.921 83.8283C28.921 80.757 28.921 77.6882 28.921 74.6576C27.8007 74.8939 26.7439 75.2266 25.6643 75.3206C24.6647 75.4176 23.6561 75.2892 22.7127 74.945C21.7692 74.6007 20.915 74.0494 20.2127 73.3315C16.7146 69.8843 13.2216 66.4268 9.79722 62.9161C8.56142 61.6313 7.87908 59.9129 7.89688 58.1303C7.91468 56.3477 8.6312 54.6433 9.8924 53.3834C11.1536 52.1235 12.8588 51.4088 14.6414 51.3929C16.424 51.377 18.1417 52.0611 19.4252 53.2983C21.7572 55.5338 23.9978 57.8531 26.2841 60.1445C26.5575 60.4595 26.812 60.7903 27.0462 61.1353C27.5426 60.6496 28.0076 60.1329 28.4384 59.5882C28.5877 59.2977 28.6273 58.9631 28.5501 58.6457C27.4705 53.2576 22.2983 48.8552 16.8035 48.7028C14.1743 48.6291 11.5424 48.6596 8.91318 48.6723C5.71233 48.6901 3.47173 50.9256 3.46411 54.1264C3.44887 61.5121 3.44887 68.8961 3.46411 76.2784C3.46411 78.6239 3.46411 80.9696 3.46411 83.3151C3.46411 84.5396 3.54541 84.6234 4.75207 84.6234C8.90302 84.6234 13.0523 84.6234 17.1998 84.6234C18.0102 84.6234 18.6504 84.8444 18.8739 85.698C19.128 86.6989 18.437 87.4762 17.2455 87.4762C14.3292 87.4915 11.4027 87.4762 8.4991 87.4762C7.07142 87.4762 5.64629 87.494 4.21861 87.4762C2.09233 87.4457 0.61638 86.0003 0.613839 83.8867C0.600291 73.8709 0.600291 63.856 0.613839 53.8419C0.613839 50.0593 2.98398 47.237 7.12984 45.9262V42.5704C7.12984 41.0792 7.10952 39.5905 7.12984 38.1019C7.12984 37.5582 6.93424 37.3398 6.46173 37.0324C3.38536 35.1297 0.593506 32.9475 0.110838 28.9972C0.0128952 27.8611 -0.0201713 26.7203 0.0117761 25.5805C-7.89044e-05 22.9503 -7.89044e-05 20.3202 0.0117761 17.6901C0.0117761 12.3071 3.59113 8.50419 8.94112 8.16886C9.03257 8.16886 9.12656 8.14092 9.39838 8.09519V5.69963C9.42124 2.10249 11.1258 0.40045 14.7154 0.40045C18.3608 0.40045 22.0036 0.369966 25.6389 0.430934C26.2474 0.450609 26.8242 0.70668 27.2469 1.14477C27.9404 2.01612 27.1987 3.21771 25.9996 3.24057C24.0359 3.27613 22.0697 3.24057 20.106 3.24057C18.1423 3.24057 16.1761 3.24057 14.2124 3.24057C12.899 3.24057 12.302 3.84009 12.2715 5.16108C12.2512 6.04766 12.2715 6.93933 12.2893 7.82083C12.3186 7.93624 12.363 8.04728 12.4214 8.15108H13.4376C18.0627 8.15108 22.6895 8.15108 27.3181 8.15108C31.2048 8.15108 33.4149 9.86582 34.3574 13.7119H46.2971C46.5825 13.7004 46.8683 13.7055 47.1532 13.7272C48.022 13.8313 48.5783 14.4613 48.5224 15.2514C48.4691 16.0135 47.8949 16.5419 47.0439 16.552C45.3012 16.5749 43.5586 16.552 41.8159 16.552C39.4686 16.552 37.1238 16.5698 34.7791 16.5393C34.5491 16.5086 34.3156 16.5611 34.1209 16.6873C33.9262 16.8136 33.783 17.0052 33.7172 17.2278C33.1406 18.5665 32.4928 19.8774 32.9551 21.5184H46.1065C46.3606 21.5184 46.6146 21.5184 46.8686 21.5184C47.9178 21.5718 48.5275 22.1103 48.5224 22.969C48.5173 23.8276 47.9127 24.3611 46.8483 24.3636C42.5704 24.3636 38.2924 24.3636 34.0144 24.3636H32.6782C32.8865 25.0648 32.9551 25.6795 33.2371 26.1724C33.8162 27.1523 34.4488 28.0996 35.1322 29.0099C35.3384 29.2217 35.6191 29.3448 35.9146 29.3529C37.1162 29.3885 38.3229 29.3529 39.5245 29.3758C40.5635 29.3935 41.1097 29.8838 41.1401 30.7272C41.1706 31.5706 40.6016 32.1752 39.5473 32.2083C38.4398 32.2438 37.3271 32.2489 36.2195 32.2083C35.5895 32.1854 35.1627 32.3022 34.8832 32.9551C34.6902 33.3997 34.3472 33.9103 33.9357 34.1059C32.5309 34.7791 32.7722 35.9197 32.8916 37.2001H46.3911C46.7061 37.2001 47.1074 37.0984 47.3234 37.2509C47.773 37.5684 48.3065 37.9622 48.4716 38.4423C48.6952 39.0952 48.2811 39.6845 47.5952 39.9106C47.199 40.0181 46.7885 40.0635 46.3784 40.0452C41.8464 40.0554 37.3144 40.0554 32.7824 40.0452C32.5355 40.0244 32.2876 40.07 32.0643 40.1772C31.841 40.2844 31.6504 40.4493 31.5122 40.6549C30.2598 42.3036 28.5349 43.0607 26.4848 43.0962C25.3544 43.114 24.2214 43.0962 22.9893 43.0962C22.9893 44.4934 22.9893 45.7814 23.0045 47.0719C23.0212 47.1741 23.0601 47.2715 23.1185 47.357C23.1769 47.4426 23.2533 47.5144 23.3424 47.5672C27.0189 49.5175 29.7849 52.8307 31.0473 56.7964C33.984 53.8368 36.8901 50.9027 39.8903 47.9051H36.4735C36.2195 47.9051 35.9654 47.9051 35.7114 47.9051C34.614 47.8772 33.9763 47.3284 33.9967 46.4317C34.017 45.535 34.6114 45.065 35.6885 45.0574C37.2737 45.0574 38.8589 45.0853 40.4415 45.032C40.8251 45.0193 41.2037 44.75 41.5796 44.5645C42.3849 44.153 43.1394 43.49 43.9828 43.3477C45.761 43.048 47.5825 42.9463 49.3175 43.9295C49.4446 43.7466 49.5716 43.584 49.6834 43.4036C50.9815 41.1554 52.2898 38.9123 53.5498 36.6437C53.7526 36.2688 53.8199 35.8355 53.7403 35.4167C51.2 25.3569 57.1673 15.922 67.3312 13.9914C69.8716 13.5112 72.3687 13.7373 74.8481 14.375C75.2749 12.3579 75.75 11.9845 77.8483 11.9845C81.5538 11.9845 85.2611 11.9845 88.97 11.9845C90.8575 11.9845 91.5256 12.6653 91.5306 14.5756C91.5306 16.2853 91.5306 17.9975 91.5306 19.7097C91.5306 21.2619 90.7482 22.029 89.1808 22.0494C87.7938 22.0671 86.4068 22.0494 84.88 22.0494C87.5601 26.9802 88.0707 31.9847 86.0359 37.1391C84.4802 41.0309 81.5472 44.2144 77.7957 46.0832C74.0442 47.9519 69.7362 48.3753 65.6927 47.2726C61.2217 46.0507 57.8176 43.3376 55.3509 39.2755C53.9537 41.7092 52.6302 44.0057 51.3219 46.3098C51.2326 46.5081 51.1942 46.7255 51.2101 46.9423C51.2101 48.9746 51.2558 51.0069 51.2482 53.0392C51.2355 55.958 49.5233 57.6982 46.6121 57.8125C46.3048 57.7946 46 57.8765 45.7433 58.0462C44.435 59.2783 43.1648 60.551 41.7219 61.9685H55.8209C56.2832 61.0997 56.5296 60.1166 57.1596 59.6085C57.7896 59.1005 58.8286 59.0344 59.8397 58.7321C59.8397 58.6203 59.8575 58.3129 59.8727 58.0081C59.9947 55.6938 61.5036 54.0528 63.8128 53.9207C65.649 53.8229 67.4892 53.8229 69.3254 53.9207C71.6752 54.0426 73.202 55.6989 73.3087 58.064C73.3087 58.3434 73.3468 58.6203 73.3722 58.9989C74.6424 58.9989 75.8744 58.9709 77.1014 58.9989C78.3284 59.0268 79.0092 60.0912 78.4936 61.0819C78.1303 61.7805 77.4774 61.844 76.7864 61.844C71.2705 61.8339 65.7562 61.8339 60.2436 61.844H59.0751V65.8807H89.3866V61.8339H85.0273C84.6463 61.8339 84.2652 61.8491 83.8867 61.8339C83.0357 61.778 82.4895 61.242 82.4946 60.4545C82.4997 59.667 82.9595 59.0573 83.7394 59.037C85.8911 58.9734 88.058 58.9455 90.197 59.0649C91.5205 59.1386 92.0489 59.987 92.3791 61.938C93.8322 62.1794 94.5384 61.5621 94.5384 60.015C94.5384 51.078 94.5384 42.141 94.5384 33.2041C94.5384 24.0131 94.5384 14.8221 94.5384 5.63104C94.5384 3.74102 94.0634 3.26089 92.1962 3.26089H33.6283C31.9872 3.26089 31.3166 2.83665 31.342 1.81289C31.3598 0.829771 32.0355 0.410612 33.5978 0.410612C52.9934 0.410612 72.3891 0.436015 91.7847 0.380127C94.5791 0.380127 96.4894 1.31244 97.3963 4.01538L97.3913 61.2394ZM56.0825 32.1727C56.3569 31.7408 56.5322 31.4868 56.6846 31.2226C58.4069 28.2334 60.1268 25.2426 61.844 22.2501C61.9593 22.0248 62.0909 21.8083 62.2378 21.6023C62.7459 20.9748 63.3835 20.7766 64.0872 21.1856C64.2458 21.2623 64.3875 21.37 64.5038 21.5024C64.6202 21.6348 64.7088 21.7891 64.7644 21.9563C64.8201 22.1235 64.8416 22.3002 64.8279 22.4759C64.8141 22.6515 64.7652 22.8227 64.6842 22.9791C64.5523 23.2666 64.403 23.5457 64.2371 23.8149C61.9812 27.7398 59.733 31.6697 57.4492 35.5793C57.3019 35.795 57.2193 36.0483 57.2112 36.3093C57.2031 36.5704 57.2698 36.8283 57.4035 37.0527C58.7534 39.8053 60.9545 42.0495 63.6805 43.4525C66.4064 44.8555 69.5119 45.3425 72.5364 44.8414C74.9402 44.471 77.196 43.4473 79.0575 41.8819C76.4079 39.1663 73.9107 36.3668 71.1519 33.8569C69.333 32.2032 68.5404 30.4808 68.6979 28.0141C68.9139 24.605 68.7538 21.1729 68.7487 17.7485C68.7487 17.4183 68.7208 17.088 68.703 16.7553C61.4986 17.2684 55.2417 24.168 56.0825 32.1727ZM10.224 34.5454C10.445 33.8214 10.224 33.3895 9.59145 32.9678C9.0561 32.622 8.61394 32.1499 8.30386 31.5931C7.99378 31.0363 7.82528 30.4118 7.8132 29.7746C7.75096 28.5738 7.75096 27.3706 7.8132 26.1698C7.93768 24.2341 9.39838 22.4812 11.2909 22.1586C12.2487 21.996 13.2699 22.2018 14.4003 22.245C14.8779 21.4321 15.4876 20.4667 16.016 19.4684C16.7146 18.1448 17.7689 17.5809 19.2575 17.5987C22.4863 17.6393 25.7151 17.6266 28.9464 17.5987C30.8009 17.5987 30.3258 17.9365 31.1032 16.1532C32.2845 13.4426 30.6967 11.0191 27.7448 11.0141C21.6344 11.0039 15.5232 11.0039 9.4111 11.0141C5.5777 11.0141 2.91032 13.6992 2.89762 17.5326C2.88746 20.8283 2.88746 24.1215 2.89762 27.4121C2.89544 27.8548 2.92514 28.2971 2.98652 28.7356C3.30661 30.9584 4.83337 32.2921 6.45666 33.6207C7.64301 34.6013 8.84966 34.7435 10.224 34.5454ZM29.8559 37.5786C29.3986 37.5786 29.0252 37.5786 28.6492 37.5786C27.5086 37.5786 26.3629 37.604 25.2324 37.5252C24.4322 37.4719 23.9623 36.946 23.9826 36.1255C24.0029 35.3049 24.4627 34.8401 25.268 34.7537C25.677 34.7105 26.0911 34.7308 26.5026 34.7283H29.9981C29.8102 33.3463 30.4402 32.696 31.5782 32.2845C32.7163 31.8729 32.9399 30.8212 32.2641 29.8C31.8438 29.1291 31.3832 28.4844 30.8847 27.8693C30.5466 27.4729 30.2909 27.0131 30.1326 26.5167C29.9742 26.0203 29.9164 25.4974 29.9626 24.9784C30.0312 23.5075 29.9778 22.029 29.9778 20.581C29.8444 20.5365 29.7076 20.5025 29.5688 20.4794C26.1495 20.4794 22.7276 20.4566 19.3083 20.4921C19.1348 20.5165 18.9684 20.5775 18.8203 20.6713C18.6723 20.765 18.5459 20.8893 18.4497 21.0358C17.6418 22.3212 16.9077 23.6498 16.1329 24.9581C15.3581 26.2664 14.5782 26.4061 13.4731 25.4179C12.9219 24.925 12.2512 24.638 11.672 25.0571C11.1702 25.4487 10.8171 25.9999 10.6711 26.6195C10.5009 27.407 10.633 28.258 10.6178 29.0811C10.5974 30.0972 11.0268 30.7577 12.048 31.027C12.8228 31.2302 13.1734 31.7891 13.1657 32.5842C13.1344 33.2801 13.1412 33.9772 13.1861 34.6724C13.2175 35.0545 13.381 35.4138 13.6484 35.6885C15.2869 37.0375 16.9509 38.3585 18.6529 39.6185C19.1319 39.9756 19.7031 40.1881 20.2991 40.2307C22.4211 40.3018 24.5431 40.3061 26.6652 40.2434C28.324 40.1977 29.3631 39.306 29.8559 37.5786ZM40.3602 51.9824L40.063 51.8706C39.8615 52.1564 39.6426 52.4296 39.4076 52.6886C35.8054 56.3044 32.1989 59.9134 28.5882 63.5156C27.4171 64.6842 26.81 64.6892 25.6541 63.5308C22.9851 60.8652 20.3185 58.1969 17.6545 55.5262C16.6206 54.4923 15.4013 54.002 13.9482 54.2966C13.2379 54.4131 12.5754 54.7293 12.0383 55.2084C11.5011 55.6875 11.1115 56.3097 10.915 57.0021C10.4222 58.5619 10.8362 59.9439 11.9845 61.0946C15.1819 64.3023 18.3853 67.5065 21.5946 70.7074C24.0334 73.1461 26.5382 73.1588 28.9617 70.7378C33.2413 66.4599 37.5201 62.1802 41.7981 57.8989C42.0166 57.6779 42.2249 57.4416 42.4967 57.1495C40.566 55.9301 40.1875 54.0706 40.3602 51.9824ZM84.2297 29.3605C84.2449 27.3282 82.9011 23.7717 81.5902 22.372C81.3622 22.1769 81.0724 22.0689 80.7722 22.0671C79.6342 22.0341 78.4859 22.0671 77.358 22.0494C75.7449 22.0316 74.9701 21.2542 74.9548 19.664C74.9548 19.0924 74.9879 18.5208 74.937 17.9569C74.9142 17.7308 74.7465 17.3802 74.5738 17.3268C73.6491 17.0499 72.7015 16.8518 71.6879 16.6079V29.3605H84.2297ZM10.0513 45.7204L20.0806 46.0329V43.1292C18.4014 43.0327 17.1439 42.1639 15.9322 41.163C14.6188 40.0757 13.2801 39.0088 11.8981 38.0079C11.4154 37.6573 10.7702 37.5303 10.0513 37.2458V45.7204ZM77.8839 14.8805V19.133H88.6194V14.8805H77.8839ZM43.208 50.4226C43.208 51.3066 43.208 52.2009 43.208 53.0747C43.208 54.1188 43.6449 54.7082 44.5036 54.8987C46.2463 55.2848 47.8238 54.9292 48.2303 54.0452C48.3217 53.8449 48.3701 53.6277 48.3725 53.4075C48.3725 51.4819 48.4056 49.5538 48.3725 47.6257C48.3573 46.6629 47.7933 46.1218 46.8229 46.0634C46.1604 46.0278 45.4964 46.0278 44.8338 46.0634C43.7974 46.1167 43.2359 46.7111 43.2105 47.7705C43.1851 48.652 43.208 49.536 43.208 50.4226ZM84.3059 32.3251H74.2842L81.3133 39.6413C82.9996 37.5451 84.0378 35.0025 84.3008 32.3251H84.3059ZM70.3644 58.9252C70.5803 57.1977 70.179 56.7303 68.5125 56.7252C67.2135 56.7252 65.9146 56.7252 64.6156 56.7252C62.9745 56.7252 62.5299 57.2689 62.8373 58.9252H70.3644Z" fill="#145594"/>
<path d="M45.4609 32.2132C44.894 32.2437 44.3258 32.2437 43.7589 32.2132C43.5828 32.207 43.4098 32.1649 43.2505 32.0896C43.0912 32.0143 42.9489 31.9072 42.8324 31.775C42.7159 31.6428 42.6275 31.4882 42.5728 31.3207C42.5181 31.1532 42.4981 30.9762 42.5141 30.8007C42.5319 30.0183 42.9968 29.4772 43.8148 29.4442C44.9503 29.3985 46.1011 29.3934 47.224 29.4442C48.0318 29.4823 48.4941 30.0031 48.5068 30.8084C48.5225 30.9836 48.5021 31.1601 48.4468 31.3271C48.3915 31.4941 48.3025 31.648 48.1854 31.7792C48.0682 31.9104 47.9253 32.0162 47.7657 32.0899C47.606 32.1637 47.4328 32.2039 47.257 32.2081C46.6589 32.2428 46.0593 32.2445 45.4609 32.2132Z" fill="#145594"/>
<path d="M26.4414 26.2967C26.4681 26.5806 26.4681 26.8664 26.4414 27.1503C26.3017 27.8844 25.8648 28.3468 25.0849 28.3645C24.2593 28.3823 23.769 27.92 23.6445 27.1376C23.5869 26.6315 23.5793 26.1209 23.6216 25.6133C23.6572 24.7014 24.1932 24.1349 25.001 24.1145C25.8546 24.0942 26.4186 24.6734 26.4643 25.626C26.4643 25.8471 26.4643 26.0681 26.4643 26.2916L26.4414 26.2967Z" fill="#145594"/>
</svg>
