<svg width="254" height="75" viewBox="0 0 254 75" fill="none" xmlns="http://www.w3.org/2000/svg">
<path d="M253.09 14.5455V22.5H228.005V14.5455H253.09ZM234.198 4.09091H244.482V45.0568C244.482 46.4394 244.691 47.5 245.107 48.2386C245.543 48.9583 246.111 49.4508 246.812 49.7159C247.512 49.9811 248.289 50.1136 249.141 50.1136C249.785 50.1136 250.372 50.0663 250.903 49.9716C251.452 49.8769 251.869 49.7917 252.153 49.7159L253.886 57.7557C253.336 57.9451 252.55 58.1534 251.528 58.3807C250.524 58.608 249.293 58.7405 247.834 58.7784C245.259 58.8542 242.939 58.4659 240.874 57.6136C238.81 56.7424 237.172 55.3977 235.959 53.5796C234.766 51.7614 234.179 49.4886 234.198 46.7614V4.09091Z" fill="#145594"/>
<path d="M197.92 59.0625C195.155 59.0625 192.664 58.5701 190.448 57.5852C188.251 56.5814 186.509 55.1042 185.221 53.1534C183.952 51.2027 183.317 48.7973 183.317 45.9375C183.317 43.4754 183.772 41.4394 184.681 39.8295C185.59 38.2197 186.831 36.9318 188.403 35.9659C189.975 35 191.745 34.2708 193.715 33.7784C195.704 33.267 197.759 32.8977 199.88 32.6705C202.437 32.4053 204.511 32.1686 206.101 31.9602C207.692 31.733 208.848 31.392 209.567 30.9375C210.306 30.464 210.675 29.7348 210.675 28.75V28.5795C210.675 26.4394 210.041 24.7822 208.772 23.608C207.503 22.4337 205.675 21.8466 203.289 21.8466C200.77 21.8466 198.772 22.3958 197.295 23.4943C195.836 24.5928 194.851 25.8902 194.34 27.3864L184.738 26.0227C185.495 23.3712 186.745 21.1553 188.488 19.375C190.23 17.5758 192.361 16.2311 194.88 15.3409C197.399 14.4318 200.183 13.9773 203.232 13.9773C205.334 13.9773 207.427 14.2235 209.511 14.7159C211.594 15.2083 213.497 16.0227 215.221 17.1591C216.944 18.2765 218.327 19.8011 219.369 21.733C220.429 23.6648 220.959 26.0795 220.959 28.9773V58.1818H211.073V52.1875H210.732C210.107 53.3996 209.226 54.536 208.09 55.5966C206.973 56.6383 205.562 57.4811 203.857 58.125C202.172 58.75 200.192 59.0625 197.92 59.0625ZM200.59 51.5057C202.655 51.5057 204.444 51.0985 205.959 50.2841C207.475 49.4508 208.639 48.3523 209.454 46.9886C210.287 45.625 210.704 44.1383 210.704 42.5284V37.3864C210.382 37.6515 209.833 37.8977 209.056 38.125C208.298 38.3523 207.446 38.5511 206.499 38.7216C205.552 38.892 204.615 39.0436 203.687 39.1761C202.759 39.3087 201.954 39.4224 201.272 39.517C199.738 39.7254 198.365 40.0663 197.153 40.5398C195.94 41.0133 194.984 41.6761 194.283 42.5284C193.583 43.3617 193.232 44.4413 193.232 45.767C193.232 47.661 193.923 49.0909 195.306 50.0568C196.689 51.0227 198.45 51.5057 200.59 51.5057Z" fill="#145594"/>
<path d="M137.224 58.1818V0H175.065V8.83523H147.763V24.6307H173.104V33.4659H147.763V49.3466H175.292V58.1818H137.224Z" fill="#145594"/>
<path d="M97.0674 74.5455C95.6659 74.5455 94.3685 74.4318 93.1753 74.2045C92.0011 73.9962 91.0636 73.75 90.3628 73.4659L92.7492 65.4545C94.2454 65.8902 95.5806 66.0985 96.7549 66.0795C97.9291 66.0606 98.9613 65.6913 99.8515 64.9716C100.761 64.2708 101.528 63.0966 102.153 61.4489L103.033 59.0909L87.2094 14.5455H98.1185L108.175 47.5H108.63L118.715 14.5455H129.653L112.181 63.4659C111.367 65.7765 110.287 67.7557 108.942 69.4034C107.598 71.0701 105.95 72.339 103.999 73.2102C102.067 74.1004 99.7568 74.5455 97.0674 74.5455Z" fill="#145594"/>
<path d="M57.6285 58.1818V14.5455H67.6001V21.8182H68.0546C68.8501 19.2992 70.2137 17.358 72.1455 15.9943C74.0963 14.6117 76.3216 13.9205 78.8216 13.9205C79.3898 13.9205 80.0243 13.9489 80.7251 14.0057C81.4447 14.0436 82.0413 14.1098 82.5148 14.2045V23.6648C82.0792 23.5133 81.3879 23.3807 80.441 23.267C79.5129 23.1345 78.6133 23.0682 77.7421 23.0682C75.8671 23.0682 74.1815 23.4754 72.6853 24.2898C71.208 25.0852 70.0432 26.1932 69.191 27.6136C68.3387 29.0341 67.9126 30.6723 67.9126 32.5284V58.1818H57.6285Z" fill="#145594"/>
<path d="M19.8302 58.1818H0.114258V0H20.2279C26.0044 0 30.9665 1.16477 35.1143 3.49432C39.2809 5.80492 42.4817 9.12879 44.7165 13.4659C46.9514 17.803 48.0688 22.9924 48.0688 29.0341C48.0688 35.0947 46.9419 40.303 44.6881 44.6591C42.4533 49.0152 39.2241 52.358 35.0006 54.6875C30.7961 57.017 25.7393 58.1818 19.8302 58.1818ZM10.654 49.0625H19.3188C23.3718 49.0625 26.7525 48.3239 29.4608 46.8466C32.1692 45.3504 34.2052 43.125 35.5688 40.1705C36.9324 37.197 37.6143 33.4848 37.6143 29.0341C37.6143 24.5833 36.9324 20.8902 35.5688 17.9545C34.2052 15 32.1881 12.7936 29.5177 11.3352C26.8662 9.85796 23.5707 9.11932 19.6313 9.11932H10.654V49.0625Z" fill="#145594"/>
</svg>
