<svg width="361" height="94" viewBox="0 0 361 94" fill="none" xmlns="http://www.w3.org/2000/svg">
<path d="M0.25 55.3C0.25 55.3 55.97 48.02 57.65 47.74C60.03 47.32 62.27 46.9 64.23 46.34C68.71 45.08 72.91 43.26 76.55 40.74C80.05 38.36 83.41 34.86 86.63 31.08C88.73 28.7 90.83 25.48 92.93 22.4V21C90.55 24.64 88.17 27.72 85.79 30.38C82.57 34.02 79.21 36.96 75.71 39.2C72.21 41.44 68.15 43.26 63.81 44.38C61.85 44.94 59.75 45.22 57.37 45.64C55.83 45.92 54.29 46.06 52.75 46.2C52.05 46.2 0.25 51.66 0.25 51.66V55.3Z" fill="#BBBDBF"/>
<path d="M75.01 45.92C71.51 47.88 67.45 49.42 62.97 50.26C61.01 50.68 59.05 50.96 56.67 51.24C55.27 51.38 53.87 51.52 52.47 51.66C51.77 51.66 50.93 51.8 50.23 51.8C33.15 53.48 16.21 55.02 0.25 56.56V60.2C16.21 58.24 33.43 56.14 50.51 54.18C51.21 54.04 52.05 54.04 52.75 53.9C54.15 53.76 55.55 53.62 56.95 53.34C59.33 53.06 61.57 52.64 63.39 52.22C68.01 51.24 72.21 49.56 75.85 47.32C79.49 45.08 82.57 42.14 86.07 38.36C88.17 35.98 90.55 32.76 92.79 29.68V28.28C90.13 31.78 87.75 34.86 85.23 37.38C81.87 41.16 78.51 43.96 75.01 45.92Z" fill="#BBBDBF"/>
<path d="M84.81 45.0799C81.45 48.1599 77.81 50.6799 74.31 52.4999C70.81 54.1799 66.89 55.4399 62.27 56.1399C60.31 56.4199 58.35 56.6999 55.97 56.9799L0.25 61.4599V65.0999L49.67 59.7799L56.11 59.0799C58.49 58.7999 60.59 58.5199 62.55 58.0999C67.31 57.2599 71.37 55.8599 75.01 54.0399C78.79 52.0799 82.43 48.9999 85.93 45.6399C88.31 43.3999 90.41 40.4599 92.79 37.5199V36.2599C89.99 39.7599 87.47 42.5599 84.81 45.0799Z" fill="#BBBDBF"/>
<path d="M71.37 42.84C68.15 44.66 65.77 45.78 61.15 46.2C58.35 46.48 55.55 46.62 52.75 46.76C51.35 46.76 50.09 46.9 48.69 47.04C40.29 47.46 32.03 48.02 23.63 48.58L0.25 50.26V53.9L23.77 51.66C31.33 50.96 40.15 50.12 48.83 49.42L55.13 49C57.51 48.86 59.61 48.58 61.43 48.3C66.19 47.74 70.25 46.76 73.89 45.36C77.81 43.96 81.45 41.58 85.09 38.92C88.45 36.54 92.93 31.78 92.93 31.64V30.38C89.99 33.32 88.17 35 84.95 37.1C80.89 39.9 74.31 41.3 71.37 42.84Z" fill="#BBBDBF"/>
<path d="M72.4896 49.84C68.9896 50.82 65.0696 51.52 60.4496 51.94C58.6297 52.08 56.5296 52.22 54.2896 52.36L48.1297 52.64C32.7297 53.34 17.3296 54.18 0.389648 55.02V58.66C16.6296 57.4 32.4497 56.14 48.4097 55.02L54.5696 54.6C56.9496 54.46 58.9096 54.32 60.8696 54.04C65.6296 53.48 69.6896 52.64 73.1896 51.52C77.1096 50.26 81.0296 48.44 84.6696 46.06C87.3297 44.38 90.1296 42.28 92.9296 39.76C89.8496 42.42 86.9096 42.98 83.9697 44.8C80.1897 47.04 76.4096 48.72 72.4896 49.84Z" fill="#BBBDBF"/>
<path d="M71.93 55.8599C68.43 56.6999 64.51 57.2599 59.89 57.5399C58.07 57.6799 56.11 57.8199 53.73 57.8199L47.57 58.0999C32.03 58.6599 16.35 59.3599 0.25 60.0599V63.6999C16.21 62.5799 31.89 61.5999 47.71 60.4799L53.87 60.0599C56.25 59.9199 58.21 59.7799 60.03 59.6399C64.79 59.2199 68.71 58.5199 72.35 57.5399C76.41 56.4199 80.33 54.8799 84.11 52.9199C87.05 51.3799 89.85 49.5599 92.79 47.3199V45.7799C89.57 48.1599 86.49 49.9799 83.41 51.5199C79.77 53.4799 75.85 54.8799 71.93 55.8599Z" fill="#BBBDBF"/>
<path d="M71.37 61.7401C67.87 62.4401 63.95 62.8601 59.33 63.0001C57.51 63.1401 55.69 63.1401 53.31 63.2801L0.25 64.6801V68.3201L47.29 65.8001L53.45 65.5201C55.83 65.3801 57.79 65.2401 59.61 65.1001C64.37 64.6801 68.15 64.2601 71.79 63.4201C75.85 62.5801 79.91 61.3201 83.69 59.6401C86.77 58.3801 89.71 56.8401 92.93 54.8801V53.4801C89.57 55.4401 86.35 56.9801 83.13 58.2401C79.35 59.9201 75.43 61.0401 71.37 61.7401Z" fill="#BBBDBF"/>
<path d="M70.95 67.6201C64.37 68.4601 57.79 68.6001 51.21 68.7401C49.67 68.7401 48.27 68.7401 46.73 68.8801L0.25 69.7201V73.3601L46.87 71.4001C48.41 71.4001 49.81 71.2601 51.35 71.2601C57.93 70.9801 64.65 70.7001 71.23 69.7201C75.43 69.0201 79.49 68.0401 83.13 66.7801C86.21 65.8001 89.43 64.4001 92.65 62.7201V61.3201C89.29 62.8601 85.79 64.2601 82.57 65.2401C79.07 66.2201 75.15 67.2001 70.95 67.6201Z" fill="#BBBDBF"/>
<path d="M70.67 73.64C64.51 74.2 58.35 74.2 52.19 74.2C50.37 74.2 48.41 74.2 46.59 74.2C31.19 74.2 15.79 74.34 0.25 74.48V78.12C15.09 77.56 30.91 77.14 46.73 76.58C48.55 76.58 50.51 76.44 52.33 76.44C58.35 76.3 64.65 76.16 70.81 75.46C75.15 75.04 79.07 74.34 82.85 73.36C86.07 72.52 89.43 71.4 92.93 70.14V68.88C89.43 70.14 85.93 71.12 82.57 71.96C78.79 72.8 74.87 73.36 70.67 73.64Z" fill="#BBBDBF"/>
<path d="M70.39 79.5199C67.87 79.6599 65.07 79.6599 61.99 79.6599C60.87 79.6599 59.61 79.6599 58.49 79.6599L46.45 79.5199C38.19 79.5199 30.07 79.3799 22.37 79.3799L0.25 79.5199V83.1599L22.51 82.5999C30.21 82.4599 38.33 82.1799 46.45 82.0399L58.49 81.8999C61.85 81.8999 66.19 81.7599 70.53 81.4799C74.87 81.1999 78.79 80.7799 82.57 80.2199C85.93 79.6599 89.43 78.9599 92.93 78.1199V76.8599C89.43 77.6999 85.79 78.3999 82.43 78.8199C78.51 79.0999 74.73 79.3799 70.39 79.5199Z" fill="#BBBDBF"/>
<path d="M58.35 85.2601L46.31 85.1201C31.05 84.8401 15.79 84.5601 0.25 84.2801V87.9201C15.09 87.7801 30.77 87.6401 46.31 87.5001L58.35 87.3601C62.41 87.3601 66.33 87.2201 70.39 87.0801C78.65 86.8001 85.93 86.2401 92.93 85.2601V84.0001C86.07 84.7001 78.65 85.1201 70.39 85.2601C66.33 85.2601 62.27 85.2601 58.35 85.2601Z" fill="#BBBDBF"/>
<path d="M92.79 91.7002L0.25 89.3202V92.9602H92.79V91.7002Z" fill="#BBBDBF"/>
<path d="M84.53 30.7998C81.03 33.5998 78.23 35.6998 74.03 37.3798C70.25 38.9198 66.19 39.4798 61.71 40.1798C58.77 40.5998 55.69 41.1598 52.75 41.4398C51.49 41.5798 50.37 41.5798 49.11 41.7198L0.25 45.2198V48.8598L49.11 44.0998L55.41 43.5398C57.79 43.2598 59.89 43.1198 61.85 42.6998C66.61 41.9998 70.67 40.7398 74.31 39.0598C78.09 37.3798 82.01 34.5798 85.51 31.6398C87.89 29.5398 90.27 27.0198 92.79 24.2198V22.9598C89.71 26.0398 87.19 28.6998 84.53 30.7998Z" fill="#BBBDBF"/>
<path d="M132.13 0C132.13 0 148.79 26.46 151.87 31.36C154.95 36.26 158.45 40.04 170.77 42.7C183.09 45.36 188.41 46.48 188.41 46.48V47.46C188.41 47.46 180.57 45.78 170.49 43.54C160.41 41.3 156.35 40.6 151.73 34.16C147.95 28.84 132.13 6.3 132.13 6.3V0Z" fill="#BBBDBF"/>
<path d="M132.13 30.2404C132.13 30.2404 147.25 46.0604 151.73 50.6804C156.35 55.5804 162.37 57.2604 170.63 58.8004C178.47 60.2004 188.41 61.8804 188.41 61.8804V62.7204C188.41 62.7204 179.03 61.1804 170.63 59.7804C162.37 58.3804 156.49 57.5404 151.73 53.2004C147.53 49.2804 132.27 35.0004 132.27 35.0004L132.13 30.2404Z" fill="#BBBDBF"/>
<path d="M132.13 37.52C132.13 37.52 146.55 50.96 151.73 55.44C156.49 59.64 160.27 60.9 170.63 62.86C180.99 64.68 188.41 65.8 188.41 65.8V66.78C188.41 66.78 179.03 65.24 170.63 63.84C162.23 62.44 156.77 62.02 151.73 57.82C145.85 53.06 132.13 41.86 132.13 41.86V37.52Z" fill="#BBBDBF"/>
<path d="M132.13 45.0801C132.13 45.0801 148.65 58.1001 151.73 60.4801C154.81 62.7201 158.87 65.3801 170.63 67.2001C182.39 68.8801 188.41 69.7201 188.41 69.7201V70.7001C188.41 70.7001 177.77 69.1601 170.63 68.3201C163.49 67.4801 158.03 67.0601 151.73 62.8601C145.57 58.8001 132.13 49.2801 132.13 49.2801V45.0801Z" fill="#BBBDBF"/>
<path d="M132.13 52.36C132.13 52.36 148.65 63.42 151.73 65.1C154.81 66.78 158.59 69.72 170.63 71.26C182.67 72.8 188.41 73.5 188.41 73.5V74.48C188.41 74.48 178.47 73.36 170.63 72.52C162.79 71.68 157.47 70.56 151.73 67.34C145.99 64.12 132.13 56.14 132.13 56.14V52.36Z" fill="#BBBDBF"/>
<path d="M132.13 59.78C132.13 59.78 146.69 67.76 151.73 70.14C157.19 72.94 161.95 74.2 170.63 75.32C179.17 76.3 188.41 77.28 188.41 77.28V78.12C188.41 78.12 179.87 77.14 170.63 76.3C161.53 75.46 158.31 75.04 151.73 72.1C145.85 69.44 132.13 63.14 132.13 63.14V59.78Z" fill="#BBBDBF"/>
<path d="M132.13 67.2C132.13 67.2 143.61 72.1 151.73 75.32C159.71 78.5399 165.73 78.8199 170.63 79.2399C172.73 79.5199 188.27 81.06 188.27 81.06V81.9C188.27 81.9 179.03 81.2 170.49 80.36C162.09 79.66 158.45 79.24 151.59 77C144.73 74.76 131.99 70.28 131.99 70.28L132.13 67.2Z" fill="#BBBDBF"/>
<path d="M132.13 74.7599C132.13 74.7599 143.75 78.3999 151.73 80.4999C159.71 82.5999 166.99 83.4399 170.63 83.7199C174.27 83.9999 188.41 85.1199 188.41 85.1199V85.9599C188.41 85.9599 180.43 85.3999 170.63 84.6999C162.65 84.1399 156.35 83.5799 151.73 82.4599C146.55 81.3399 132.13 77.8399 132.13 77.8399V74.7599Z" fill="#BBBDBF"/>
<path d="M132.13 82.1799C132.13 82.1799 141.65 83.8599 151.73 85.5399C159.29 86.7999 169.51 87.6399 170.63 87.6399C171.75 87.6399 188.41 88.8999 188.41 88.8999V89.7399C188.41 89.7399 177.77 89.1799 170.63 88.7599C163.21 88.3399 155.93 87.9199 151.73 87.4999C142.35 86.5199 132.13 85.2599 132.13 85.2599V82.1799Z" fill="#BBBDBF"/>
<path d="M132.13 90.02C132.13 90.02 147.11 90.58 151.73 90.72C156.35 90.86 188.41 92.12 188.41 92.12V92.96H132.13V90.02Z" fill="#BBBDBF"/>
<path d="M170.63 46.7599C157.05 43.8199 153.97 38.9199 151.73 35.8399C149.49 32.7599 132.27 7.55994 132.27 7.55994V13.2999C132.97 14.1399 147.67 33.4599 151.87 38.7799C156.49 44.7999 163.77 46.1999 170.77 47.5999C177.77 49.1399 188.55 51.2399 188.55 51.2399V50.3999C188.41 50.3999 174.13 47.5999 170.63 46.7599Z" fill="#BBBDBF"/>
<path d="M170.63 50.8199C159.43 48.5799 154.95 45.0799 151.73 40.8799C148.51 36.5399 132.27 15.2599 132.27 15.2599V20.5799C132.97 21.4199 147.81 38.9199 151.73 43.5399C156.35 48.8599 162.79 50.2599 170.63 51.6599C178.47 53.0599 188.41 55.0199 188.41 55.0199V54.1799C188.41 54.1799 177.07 52.0799 170.63 50.8199Z" fill="#BBBDBF"/>
<path d="M170.63 54.8802C159.01 52.6402 156.63 50.8202 151.73 45.3602C148.65 42.0002 132.83 23.3802 132.13 22.5402V27.4402C132.13 27.4402 146.83 43.1202 151.59 47.8802C157.75 54.0402 163.63 54.4602 170.49 55.7202C177.35 56.9802 188.27 58.9402 188.27 58.9402V58.1002C188.41 58.1002 175.25 55.8602 170.63 54.8802Z" fill="#BBBDBF"/>
<path d="M119.81 38.6401H38.75V92.8201H119.81V38.6401Z" fill="#034DA1"/>
<path d="M80.19 46.3403H82.99L80.75 48.1603L81.59 50.9603L79.35 49.2803L77.11 50.9603L77.95 48.1603L75.71 46.3403H78.51L79.35 43.5403L80.19 46.3403Z" fill="#FFF100"/>
<path d="M80.19 82.4601H82.99L80.75 84.14L81.59 86.8L79.35 85.12L77.11 86.8L77.95 84.14L75.71 82.4601H78.51L79.35 79.8L80.19 82.4601Z" fill="#FFF100"/>
<path d="M89.1499 80.08H91.9499L89.7099 81.76L90.5499 84.42L88.3099 82.74L86.0699 84.42L86.9099 81.76L84.6699 80.08H87.4699L88.3099 77.42L89.1499 80.08Z" fill="#FFF100"/>
<path d="M89.1505 48.7199H91.9505L89.7105 50.3999L90.5505 53.0599L88.3105 51.3799L86.0705 53.1999L87.0505 50.3999L84.8105 48.7199H87.6105L88.4505 46.0599L89.1505 48.7199Z" fill="#FFF100"/>
<path d="M95.8697 55.44H98.6697L96.4296 57.12L97.2697 59.78L95.0296 58.1L92.7896 59.78L93.6296 57.12L91.3896 55.44H94.1896L95.0296 52.78L95.8697 55.44Z" fill="#FFF100"/>
<path d="M95.8697 73.64H98.6697L96.4296 75.32L97.2697 77.98L95.0296 76.3L92.7896 77.98L93.6296 75.32L91.3896 73.64H94.1896L95.0296 70.98L95.8697 73.64Z" fill="#FFF100"/>
<path d="M98.3905 64.4002H101.191L98.9505 66.0802L99.7905 68.7402L97.5505 67.0602L95.3105 68.7402L96.1505 66.0802L93.7705 64.4002H96.5705L97.4105 61.7402L98.3905 64.4002Z" fill="#FFF100"/>
<path d="M70.9497 48.7201H73.7497L71.5097 50.4001L72.3497 53.0601L70.2497 51.5201L67.8697 53.2001L68.7097 50.5401L66.4697 48.8601H69.2697L70.2497 46.2001L70.9497 48.7201Z" fill="#FFF100"/>
<path d="M64.5103 55.44H67.3103L65.0703 57.12L65.9103 59.78L63.6703 58.1L61.4303 59.78L62.2703 57.12L60.0303 55.44H62.8303L63.6703 52.78L64.5103 55.44Z" fill="#FFF100"/>
<path d="M62.1304 64.4002H64.9304L62.6904 66.0802L63.5304 68.7402L61.2904 67.0602L59.0504 68.7402L59.8904 66.0802L57.6504 64.4002H60.4504L61.2904 61.7402L62.1304 64.4002Z" fill="#FFF100"/>
<path d="M64.5103 73.64H67.3103L65.0703 75.32L65.9103 77.98L63.6703 76.3L61.4303 77.98L62.2703 75.32L60.0303 73.64H62.8303L63.6703 70.98L64.5103 73.64Z" fill="#FFF100"/>
<path d="M71.0903 80.2201H73.8903L71.6503 81.9001L72.4903 84.5601L70.2503 82.8801L68.0104 84.5601L68.8503 81.9001L66.6104 80.2201H69.4104L70.2503 77.5601L71.0903 80.2201Z" fill="#FFF100"/>
<path d="M201.01 46.3399C201.01 45.9199 201.15 45.7799 201.57 45.7799H211.93C212.35 45.7799 212.49 45.9199 212.49 46.3399V48.0199C212.49 48.2999 212.35 48.5799 211.93 48.5799H204.23V53.4799H211.09C211.51 53.4799 211.65 53.6199 211.65 54.0399V55.7199C211.65 55.9999 211.51 56.2799 211.09 56.2799H204.23V61.8799H212.07C212.35 61.8799 212.63 62.0199 212.63 62.4399V64.1199C212.63 64.3999 212.49 64.6799 212.07 64.6799H201.57C201.15 64.6799 201.01 64.5399 201.01 64.1199V46.3399Z" fill="#626366"/>
<path d="M226.77 64.54H224.81C224.67 64.54 224.53 64.54 224.39 64.4C224.25 64.26 224.25 64.12 224.25 63.98V63C223.97 63.14 223.69 63.42 223.27 63.56C222.85 63.7 222.57 63.98 222.15 64.12C221.73 64.26 221.31 64.4 220.89 64.54C220.47 64.68 220.05 64.68 219.63 64.68C218.65 64.68 217.95 64.54 217.39 64.26C216.83 63.98 216.41 63.7 216.13 63.14C215.85 62.72 215.71 62.16 215.57 61.46C215.43 60.76 215.43 60.2 215.43 59.36V51.1C215.43 50.68 215.57 50.54 215.99 50.54H218.09C218.37 50.54 218.65 50.68 218.65 51.1V58.94C218.65 59.36 218.65 59.78 218.79 60.06C218.79 60.34 218.93 60.62 219.07 60.9C219.21 61.18 219.49 61.32 219.63 61.46C219.77 61.6 220.19 61.6 220.61 61.6C220.89 61.6 221.17 61.6 221.59 61.46C222.01 61.32 222.29 61.18 222.71 61.04C223.13 60.9 223.41 60.76 223.69 60.62C223.97 60.48 224.25 60.34 224.39 60.2V50.82C224.39 50.68 224.39 50.54 224.53 50.4C224.67 50.26 224.81 50.26 224.95 50.26H226.91C227.33 50.26 227.47 50.4 227.47 50.82V63.56C227.33 64.26 227.19 64.54 226.77 64.54Z" fill="#626366"/>
<path d="M233.91 63.9797C233.91 64.3997 233.77 64.5397 233.35 64.5397H231.25C230.83 64.5397 230.69 64.3997 230.69 63.9797V51.2397C230.69 50.8197 230.83 50.6797 231.25 50.6797H233.21C233.63 50.6797 233.77 50.8197 233.77 51.2397V52.4997C233.91 52.3597 234.19 52.0797 234.61 51.9397C234.89 51.6597 235.31 51.5197 235.73 51.3797C236.15 51.2397 236.57 51.0997 236.85 50.8197C237.27 50.6797 237.55 50.5397 237.97 50.5397C238.11 50.5397 238.25 50.5397 238.39 50.5397C238.53 50.5397 238.53 50.6797 238.67 50.9597L238.81 52.7797C238.81 52.9197 238.81 53.1997 238.81 53.1997C238.81 53.3397 238.67 53.3397 238.25 53.4797C237.83 53.6197 237.41 53.6197 236.99 53.7597C236.57 53.8997 236.15 54.0397 235.73 54.0397C235.31 54.1797 234.89 54.3197 234.61 54.4597C234.19 54.5997 233.91 54.7397 233.77 54.7397V63.9797H233.91Z" fill="#626366"/>
<path d="M252.53 57.3999C252.53 58.2399 252.53 59.0799 252.39 59.9199C252.25 60.7599 251.97 61.5999 251.55 62.2999C251.13 62.9999 250.57 63.5599 249.73 64.1199C248.89 64.5399 247.77 64.8199 246.37 64.8199C244.97 64.8199 243.85 64.5399 243.01 64.1199C242.17 63.6999 241.61 63.1399 241.19 62.2999C240.77 61.5999 240.49 60.7599 240.49 59.9199C240.35 59.0799 240.35 58.2399 240.35 57.3999C240.35 56.6999 240.35 55.9999 240.49 55.1599C240.63 54.3199 240.91 53.6199 241.33 52.9199C241.75 52.2199 242.31 51.6599 243.15 51.0999C243.99 50.6799 244.97 50.3999 246.37 50.3999C247.77 50.3999 248.89 50.5399 249.59 50.9599C250.43 51.3799 250.99 51.9399 251.41 52.6399C251.83 53.3399 252.11 54.0399 252.25 54.8799C252.39 55.7199 252.53 56.5599 252.53 57.3999ZM249.31 57.5399C249.31 56.8399 249.31 56.1399 249.17 55.5799C249.03 55.0199 248.89 54.5999 248.75 54.1799C248.47 53.7599 248.19 53.4799 247.77 53.3399C247.35 53.1999 246.93 53.0599 246.23 53.0599C245.67 53.0599 245.11 53.1999 244.83 53.3399C244.55 53.4799 244.13 53.7599 243.99 54.1799C243.71 54.5999 243.57 55.0199 243.57 55.5799C243.43 56.1399 243.43 56.8399 243.43 57.5399C243.43 58.2399 243.43 58.9399 243.57 59.4999C243.71 60.0599 243.85 60.4799 243.99 60.8999C244.13 61.3199 244.55 61.5999 244.83 61.7399C245.11 61.8799 245.67 62.0199 246.23 62.0199C246.93 62.0199 247.35 61.8799 247.77 61.7399C248.19 61.5999 248.47 61.3199 248.75 60.8999C249.03 60.4799 249.17 60.0599 249.17 59.4999C249.31 58.9399 249.31 58.3799 249.31 57.5399Z" fill="#626366"/>
<path d="M267.37 57.5399C267.37 58.6599 267.23 59.6399 267.09 60.6199C266.95 61.4599 266.67 62.2999 266.25 62.8599C265.83 63.4199 265.27 63.9799 264.57 64.2599C263.87 64.5399 262.89 64.6799 261.77 64.6799C261.35 64.6799 260.79 64.6799 260.09 64.5399C259.53 64.3999 258.83 64.2599 258.13 64.1199V69.0199C258.13 69.1599 258.13 69.2999 257.99 69.4399C257.85 69.5799 257.71 69.5799 257.57 69.5799H255.61C255.33 69.5799 255.19 69.5799 255.19 69.4399C255.19 69.2999 255.05 69.1599 255.05 69.0199V51.2399C255.05 50.8199 255.19 50.6799 255.61 50.6799H257.57C257.71 50.6799 257.85 50.6799 257.99 50.8199C258.13 50.9599 258.13 51.0999 258.13 51.2399V52.0799H258.27C258.55 51.9399 258.83 51.7999 259.11 51.5199C259.39 51.3799 259.81 51.0999 260.23 50.9599C260.65 50.8199 261.07 50.6799 261.49 50.5399C261.91 50.3999 262.33 50.3999 262.75 50.3999C263.73 50.3999 264.43 50.5399 264.99 50.9599C265.55 51.2399 266.11 51.7999 266.39 52.3599C266.67 52.9199 266.95 53.7599 267.09 54.5999C267.37 55.4399 267.37 56.4199 267.37 57.5399ZM264.15 57.5399C264.15 56.6999 264.15 55.8599 264.01 55.4399C263.87 55.0199 263.73 54.4599 263.59 54.1799C263.45 53.8999 263.17 53.6199 262.89 53.6199C262.61 53.4799 262.33 53.4799 261.91 53.4799C261.63 53.4799 261.35 53.4799 260.93 53.6199C260.51 53.7599 260.23 53.7599 259.81 53.8999C259.53 54.0399 259.11 54.1799 258.83 54.3199C258.55 54.4599 258.27 54.5999 257.99 54.7399V61.7399C258.69 61.8799 259.25 62.0199 259.67 62.1599C260.09 62.2999 260.65 62.2999 261.21 62.2999C261.77 62.2999 262.19 62.1599 262.47 62.0199C262.75 61.8799 263.03 61.5999 263.31 61.3199C263.59 60.8999 263.73 60.4799 263.73 59.9199C264.15 59.0799 264.15 58.3799 264.15 57.5399Z" fill="#626366"/>
<path d="M272.83 58.3799C272.83 59.0799 272.97 59.6399 273.11 60.1999C273.25 60.6199 273.53 61.0399 273.81 61.3199C274.09 61.5999 274.37 61.7399 274.79 61.8799C275.21 62.0199 275.63 62.0199 276.33 62.0199C276.89 62.0199 277.45 62.0199 278.15 61.8799C278.85 61.7399 279.41 61.7399 279.97 61.7399C280.25 61.7399 280.39 61.7399 280.53 61.7399C280.67 61.7399 280.67 61.8799 280.81 62.1599L280.95 63.1399C280.95 63.2799 280.95 63.5599 280.95 63.6999C280.95 63.8399 280.81 63.9799 280.53 64.1199C280.25 64.2599 279.97 64.3999 279.55 64.3999C279.13 64.3999 278.85 64.5399 278.43 64.6799C278.01 64.8199 277.59 64.8199 277.17 64.8199C276.75 64.8199 276.33 64.8199 276.05 64.8199C274.65 64.8199 273.67 64.6799 272.83 64.2599C271.99 63.8399 271.43 63.2799 271.01 62.7199C270.59 62.0199 270.31 61.3199 270.17 60.4799C270.03 59.6399 269.89 58.7999 269.89 57.8199C269.89 57.1199 269.89 56.4199 270.03 55.5799C270.17 54.7399 270.45 53.8999 270.87 53.1999C271.29 52.4999 271.85 51.7999 272.69 51.3799C273.53 50.8199 274.51 50.6799 275.91 50.6799C277.17 50.6799 278.15 50.8199 278.99 51.2399C279.83 51.6599 280.39 52.0799 280.81 52.6399C281.23 53.1999 281.51 53.8999 281.65 54.5999C281.79 55.2999 281.93 56.1399 281.93 56.8399C281.93 57.3999 281.93 57.8199 281.65 58.0999C281.37 58.3799 281.09 58.5199 280.53 58.5199H272.83V58.3799ZM275.63 52.9199C275.07 52.9199 274.65 53.0599 274.37 53.1999C274.09 53.3399 273.81 53.6199 273.53 53.8999C273.25 54.1799 273.11 54.5999 273.11 55.0199C272.97 55.4399 272.97 55.8599 272.97 56.4199H278.57C278.57 55.9999 278.57 55.5799 278.43 55.1599C278.29 54.7399 278.15 54.4599 278.01 54.0399C277.87 53.6199 277.59 53.4799 277.17 53.3399C276.61 53.0599 276.19 52.9199 275.63 52.9199Z" fill="#626366"/>
<path d="M292.85 62.86C292.15 63.42 291.31 63.84 290.47 64.12C289.63 64.4 288.65 64.68 287.67 64.68C286.97 64.68 286.27 64.54 285.85 64.4C285.29 64.26 285.01 63.98 284.73 63.56C284.45 63.28 284.17 62.86 284.17 62.3C284.03 61.88 284.03 61.32 284.03 60.62C284.03 58.94 284.45 57.82 285.29 56.98C286.13 56.28 287.53 55.86 289.21 55.86H292.85V55.16C292.85 54.74 292.85 54.46 292.71 54.04C292.57 53.76 292.43 53.48 292.29 53.34C292.01 53.2 291.73 53.06 291.45 52.92C291.03 52.78 290.61 52.78 290.05 52.78C289.77 52.78 289.49 52.78 289.21 52.78C288.93 52.78 288.51 52.78 288.23 52.78C287.95 52.78 287.53 52.78 287.25 52.92C286.97 52.92 286.55 52.92 286.27 53.06C285.99 53.06 285.85 53.06 285.71 53.06C285.57 53.06 285.57 52.92 285.43 52.64L285.15 51.66C285.15 51.52 285.15 51.38 285.15 51.24C285.29 51.1 285.43 50.96 285.71 50.82C285.99 50.68 286.41 50.68 286.83 50.54C287.25 50.4 287.67 50.4 288.09 50.4C288.51 50.4 288.93 50.26 289.35 50.26C289.77 50.26 290.19 50.26 290.47 50.26C291.73 50.26 292.71 50.4 293.41 50.68C294.11 50.96 294.67 51.24 295.09 51.66C295.51 52.08 295.65 52.64 295.79 53.34C295.93 54.04 295.93 54.74 295.93 55.44V60.9C295.93 61.18 295.93 61.46 295.93 61.6C295.93 61.74 296.07 61.88 296.07 62.02C296.07 62.16 296.21 62.16 296.35 62.16C296.49 62.16 296.63 62.16 296.91 62.3C297.05 62.3 297.19 62.3 297.33 62.44C297.47 62.44 297.47 62.58 297.47 62.72V63.84C297.47 64.12 297.19 64.4 296.77 64.4C296.49 64.4 296.35 64.4 296.07 64.54C295.79 64.54 295.65 64.54 295.37 64.54C294.67 64.54 294.25 64.4 293.83 64.12C293.27 63.98 292.99 63.56 292.85 62.86ZM292.71 58.24H289.35C288.65 58.24 288.09 58.38 287.67 58.8C287.25 59.08 287.11 59.78 287.11 60.62C287.11 61.18 287.25 61.6 287.53 61.88C287.81 62.16 288.23 62.3 288.93 62.3C289.21 62.3 289.49 62.3 289.91 62.16C290.33 62.02 290.61 62.02 291.03 61.88C291.45 61.74 291.73 61.6 292.01 61.46C292.29 61.32 292.71 61.18 292.85 61.04V58.24H292.71Z" fill="#626366"/>
<path d="M311.189 64.3999C311.049 64.5399 310.909 64.5399 310.769 64.5399H308.669C308.249 64.5399 308.109 64.3999 308.109 63.9799V56.1399C308.109 55.2999 307.969 54.5999 307.689 54.1799C307.409 53.6199 306.849 53.4799 306.009 53.4799C305.729 53.4799 305.449 53.4799 305.029 53.6199C304.609 53.7599 304.329 53.8999 303.909 54.0399C303.489 54.1799 303.209 54.3199 302.929 54.4599C302.649 54.5999 302.369 54.7399 302.229 54.8799V64.2599C302.229 64.6799 302.089 64.8199 301.669 64.8199H299.709C299.289 64.8199 299.149 64.6799 299.149 64.2599V51.5199C299.149 51.0999 299.289 50.9599 299.709 50.9599H301.669C302.089 50.9599 302.229 51.0999 302.229 51.5199V52.3599C302.509 52.2199 302.789 51.9399 303.209 51.7999C303.629 51.6599 303.909 51.3799 304.329 51.2399C304.749 51.0999 305.169 50.9599 305.589 50.8199C306.009 50.6799 306.429 50.6799 306.849 50.6799C307.829 50.6799 308.529 50.8199 309.089 51.0999C309.649 51.3799 310.069 51.7999 310.349 52.2199C310.629 52.6399 310.769 53.3399 310.909 53.8999C311.049 54.5999 311.049 55.1599 311.049 55.9999V64.1199C311.189 64.1199 311.189 64.2599 311.189 64.3999Z" fill="#626366"/>
<path d="M200.73 83.7201C200.73 82.4601 200.87 81.3401 201.01 80.2201C201.15 79.1001 201.57 77.9801 202.13 77.1401C202.69 76.3001 203.39 75.4601 204.37 74.9001C205.35 74.3401 206.61 74.0601 208.29 74.0601C208.57 74.0601 208.99 74.0601 209.41 74.0601C209.83 74.0601 210.25 74.2001 210.81 74.2001C211.23 74.2001 211.79 74.3401 212.21 74.4801C212.63 74.6201 213.05 74.7601 213.47 74.9001C213.75 75.0401 213.89 75.0401 213.89 75.1801C213.89 75.3201 214.03 75.4601 214.03 75.7401L213.75 76.8601C213.75 77.0001 213.61 77.1401 213.61 77.2801C213.47 77.4201 213.33 77.4201 213.05 77.2801C212.35 77.1401 211.65 77.1401 210.81 77.0001C209.97 76.8601 209.27 76.8601 208.57 76.8601C207.59 76.8601 206.89 77.0001 206.33 77.4201C205.77 77.8401 205.35 78.2601 204.93 78.8201C204.65 79.3801 204.37 80.2201 204.37 80.9201C204.37 81.6201 204.23 82.6001 204.23 83.5801C204.23 84.5601 204.23 85.4001 204.37 86.1001C204.51 86.9401 204.65 87.6401 205.07 88.2001C205.35 88.7601 205.77 89.3201 206.47 89.6001C207.03 89.8801 207.73 90.1601 208.71 90.1601C209.55 90.1601 210.25 90.1601 210.95 90.0201C211.65 89.8801 212.35 89.8801 213.19 89.7401C213.47 89.7401 213.61 89.7401 213.75 89.7401C213.89 89.8801 213.89 89.8801 214.03 90.1601L214.31 91.2801C214.45 91.7001 214.31 91.9801 213.89 92.1201C213.61 92.2601 213.19 92.4001 212.63 92.5401C212.21 92.6801 211.65 92.6801 211.23 92.8201C210.81 92.9601 210.25 92.9601 209.83 92.9601C209.41 92.9601 208.99 92.9601 208.57 92.9601C207.03 92.9601 205.77 92.6801 204.79 92.1201C203.81 91.5601 202.97 90.8601 202.55 90.0201C201.99 89.1801 201.57 88.2001 201.43 87.0801C200.87 86.1001 200.73 84.9801 200.73 83.7201Z" fill="#626366"/>
<path d="M228.311 85.8198C228.311 86.6598 228.311 87.4998 228.171 88.3398C228.031 89.1798 227.751 90.0198 227.331 90.7198C226.911 91.4198 226.351 91.9798 225.511 92.5398C224.671 92.9598 223.551 93.2398 222.151 93.2398C220.751 93.2398 219.631 92.9598 218.791 92.5398C217.951 92.1198 217.391 91.5598 216.971 90.7198C216.551 90.0198 216.271 89.1798 216.271 88.3398C216.131 87.4998 216.131 86.6598 216.131 85.8198C216.131 85.1198 216.131 84.4198 216.271 83.5798C216.411 82.7398 216.691 82.0398 217.111 81.3398C217.531 80.6398 218.091 80.0798 218.931 79.5198C219.771 79.0998 220.751 78.8198 222.151 78.8198C223.551 78.8198 224.671 78.9598 225.371 79.3798C226.211 79.7998 226.771 80.3598 227.191 81.0598C227.611 81.7598 227.891 82.4598 228.031 83.2998C228.171 84.1398 228.311 84.9798 228.311 85.8198ZM225.091 85.9598C225.091 85.2598 225.091 84.5598 224.951 83.9998C224.811 83.4398 224.671 83.0198 224.531 82.5998C224.251 82.1798 223.971 81.8998 223.551 81.7598C223.131 81.6198 222.711 81.4798 222.011 81.4798C221.451 81.4798 220.891 81.6198 220.611 81.7598C220.331 81.8998 219.911 82.1798 219.771 82.5998C219.491 83.0198 219.351 83.4398 219.351 83.9998C219.211 84.5598 219.211 85.2598 219.211 85.9598C219.211 86.6598 219.211 87.3598 219.351 87.9198C219.491 88.4798 219.631 88.8998 219.771 89.3198C219.911 89.7398 220.331 90.0198 220.611 90.1598C220.891 90.2998 221.451 90.4398 222.011 90.4398C222.711 90.4398 223.131 90.2998 223.551 90.1598C223.971 90.0198 224.251 89.7398 224.531 89.3198C224.811 88.8998 224.951 88.4798 224.951 87.9198C224.951 87.3598 225.091 86.7998 225.091 85.9598Z" fill="#626366"/>
<path d="M251.131 92.8198C251.131 92.9598 250.991 92.9598 250.711 92.9598H248.751C248.331 92.9598 248.191 92.8198 248.191 92.3998V84.4198C248.191 83.4398 248.051 82.5998 247.771 82.3198C247.491 81.8998 246.931 81.7598 246.231 81.7598C245.951 81.7598 245.671 81.7598 245.391 81.8998C245.111 82.0398 244.691 82.0398 244.411 82.1798C244.131 82.3198 243.711 82.4598 243.431 82.5998C243.151 82.7398 242.871 82.8798 242.591 83.0198C242.591 83.1598 242.591 83.2998 242.591 83.5798C242.591 83.8598 242.591 84.1398 242.591 84.4198V92.3998C242.591 92.5398 242.591 92.6798 242.451 92.8198C242.311 92.9598 242.171 92.9598 242.031 92.9598H239.931C239.651 92.9598 239.511 92.8198 239.511 92.3998V84.2798C239.511 83.4398 239.371 82.7398 239.091 82.3198C238.811 81.8998 238.391 81.7598 237.691 81.7598C237.411 81.7598 237.131 81.7598 236.851 81.8998C236.571 82.0398 236.291 82.0398 235.871 82.1798C235.591 82.3198 235.171 82.4598 234.891 82.5998C234.611 82.7398 234.331 82.8798 234.051 83.0198V92.3998C234.051 92.8198 233.911 92.9598 233.491 92.9598H231.531C231.251 92.9598 230.971 92.8198 230.971 92.3998V79.6598C230.971 79.2398 231.111 79.0998 231.531 79.0998H233.491C233.911 79.0998 234.051 79.2398 234.051 79.6598V80.4998C234.331 80.3598 234.611 80.0798 234.891 79.9398C235.171 79.7998 235.591 79.5198 235.871 79.3798C236.151 79.2398 236.571 79.0998 236.991 78.9598C237.411 78.8198 237.691 78.8198 238.111 78.8198C238.951 78.8198 239.651 78.9598 240.351 79.2398C241.051 79.5198 241.611 80.0798 242.031 80.7798C242.731 80.2198 243.571 79.7998 244.411 79.3798C245.251 78.9598 246.091 78.8198 247.071 78.8198C248.051 78.8198 248.751 78.9598 249.311 79.2398C249.871 79.5198 250.291 79.9398 250.571 80.3598C250.851 80.7798 250.991 81.3398 251.131 82.0398C251.271 82.7398 251.271 83.2998 251.271 83.9998V92.3998C251.131 92.5398 251.131 92.6798 251.131 92.8198Z" fill="#626366"/>
<path d="M274.23 92.8198C274.23 92.9598 274.09 92.9598 273.81 92.9598H271.85C271.43 92.9598 271.29 92.8198 271.29 92.3998V84.4198C271.29 83.4398 271.15 82.5998 270.87 82.3198C270.59 81.8998 270.03 81.7598 269.33 81.7598C269.05 81.7598 268.77 81.7598 268.49 81.8998C268.21 82.0398 267.79 82.0398 267.51 82.1798C267.23 82.3198 266.81 82.4598 266.53 82.5998C266.25 82.7398 265.97 82.8798 265.69 83.0198C265.69 83.1598 265.69 83.2998 265.69 83.5798C265.69 83.8598 265.69 84.1398 265.69 84.4198V92.3998C265.69 92.5398 265.69 92.6798 265.55 92.8198C265.41 92.9598 265.27 92.9598 265.13 92.9598H263.03C262.75 92.9598 262.61 92.8198 262.61 92.3998V84.2798C262.61 83.4398 262.47 82.7398 262.19 82.3198C261.91 81.8998 261.49 81.7598 260.79 81.7598C260.51 81.7598 260.23 81.7598 259.95 81.8998C259.67 82.0398 259.39 82.0398 258.97 82.1798C258.55 82.3198 258.27 82.4598 257.99 82.5998C257.71 82.7398 257.43 82.8798 257.15 83.0198V92.3998C257.15 92.8198 257.01 92.9598 256.59 92.9598H254.63C254.35 92.9598 254.07 92.8198 254.07 92.3998V79.6598C254.07 79.2398 254.21 79.0998 254.63 79.0998H256.59C257.01 79.0998 257.15 79.2398 257.15 79.6598V80.4998C257.43 80.3598 257.71 80.0798 257.99 79.9398C258.27 79.7998 258.69 79.5198 258.97 79.3798C259.39 79.2398 259.67 79.0998 260.09 78.9598C260.51 78.8198 260.79 78.8198 261.21 78.8198C262.05 78.8198 262.75 78.9598 263.45 79.2398C264.15 79.5198 264.71 80.0798 265.13 80.7798C265.83 80.2198 266.67 79.7998 267.51 79.3798C268.35 78.9598 269.19 78.8198 270.17 78.8198C271.15 78.8198 271.85 78.9598 272.41 79.2398C272.97 79.5198 273.39 79.9398 273.67 80.3598C273.95 80.7798 274.09 81.3398 274.23 82.0398C274.37 82.7398 274.37 83.2998 274.37 83.9998V92.3998C274.37 92.5398 274.23 92.6798 274.23 92.8198Z" fill="#626366"/>
<path d="M280.951 75.4601C280.951 75.7401 280.951 75.8801 280.951 76.1601C280.951 76.3001 280.811 76.5801 280.671 76.7201C280.531 76.8601 280.391 77.0001 280.111 77.1401C279.831 77.2801 279.551 77.2801 279.271 77.2801C278.851 77.2801 278.571 77.2801 278.431 77.1401C278.151 77.0001 278.011 76.8601 277.871 76.7201C277.731 76.5801 277.731 76.4401 277.591 76.1601C277.591 76.0201 277.591 75.7401 277.591 75.6001C277.591 75.1801 277.731 74.7601 277.871 74.4801C278.151 74.2001 278.571 74.0601 279.271 74.0601C279.971 74.0601 280.391 74.2001 280.671 74.4801C280.811 74.6201 280.951 75.0401 280.951 75.4601ZM280.811 92.4001C280.811 92.5401 280.811 92.6801 280.671 92.8201C280.671 92.9601 280.531 92.9601 280.251 92.9601H278.291C277.871 92.9601 277.731 92.8201 277.731 92.4001V79.6601C277.731 79.2401 277.871 79.1001 278.291 79.1001H280.251C280.391 79.1001 280.531 79.1001 280.671 79.2401C280.671 79.3801 280.811 79.5201 280.811 79.6601V92.4001Z" fill="#626366"/>
<path d="M294.531 88.7599C294.531 89.5999 294.391 90.2999 294.111 90.8599C293.831 91.4199 293.411 91.8399 292.851 92.2599C292.291 92.5399 291.731 92.8199 291.031 92.9599C290.331 93.0999 289.631 93.2399 288.931 93.2399C288.231 93.2399 287.391 93.2399 286.691 93.0999C285.851 92.9599 285.151 92.8199 284.591 92.6799C284.311 92.5399 284.171 92.3999 284.031 92.2599C283.891 92.1199 283.891 91.9799 284.031 91.6999L284.171 90.7199C284.171 90.4399 284.311 90.2999 284.451 90.2999C284.591 90.2999 284.731 90.2999 285.011 90.2999C285.291 90.2999 285.711 90.4399 285.991 90.4399C286.411 90.4399 286.691 90.4399 287.111 90.5799C287.531 90.5799 287.811 90.5799 288.091 90.7199C288.371 90.7199 288.651 90.7199 288.931 90.7199C289.771 90.7199 290.471 90.5799 290.891 90.2999C291.311 90.0199 291.451 89.5999 291.451 89.0399C291.451 88.7599 291.451 88.4799 291.311 88.1999C291.171 87.9199 291.171 87.7799 290.891 87.6399C290.611 87.4999 290.471 87.3599 290.191 87.3599C289.911 87.2199 289.491 87.2199 289.071 87.0799C288.371 86.9399 287.671 86.7999 287.111 86.6599C286.551 86.5199 285.991 86.2399 285.431 85.9599C285.011 85.6799 284.591 85.2599 284.311 84.8399C284.031 84.4199 283.891 83.7199 283.891 83.0199C283.891 81.6199 284.311 80.6399 285.291 79.7999C286.271 79.0999 287.531 78.6799 289.071 78.6799C289.351 78.6799 289.631 78.6799 290.051 78.6799C290.471 78.6799 290.751 78.6799 291.171 78.8199C291.591 78.8199 291.871 78.9599 292.291 78.9599C292.711 78.9599 292.991 79.0999 293.271 79.2399C293.691 79.3799 293.971 79.6599 293.831 80.0799L293.551 81.0599C293.551 81.1999 293.411 81.3399 293.271 81.4799C293.131 81.4799 292.991 81.4799 292.711 81.4799C292.151 81.3399 291.451 81.3399 290.751 81.1999C290.051 81.1999 289.491 81.0599 288.931 81.0599C288.091 81.0599 287.391 81.1999 287.111 81.4799C286.831 81.7599 286.691 82.1799 286.691 82.7399C286.691 83.2999 286.831 83.5799 287.251 83.8599C287.671 83.9999 288.231 84.1399 289.071 84.2799C289.771 84.4199 290.331 84.5599 291.031 84.6999C291.731 84.8399 292.151 85.1199 292.711 85.3999C293.131 85.6799 293.551 86.0999 293.831 86.6599C294.391 87.2199 294.531 87.9199 294.531 88.7599Z" fill="#626366"/>
<path d="M307.41 88.7599C307.41 89.5999 307.271 90.2999 306.991 90.8599C306.711 91.4199 306.29 91.8399 305.73 92.2599C305.17 92.5399 304.61 92.8199 303.91 92.9599C303.21 93.0999 302.51 93.2399 301.81 93.2399C301.11 93.2399 300.271 93.2399 299.571 93.0999C298.731 92.9599 298.031 92.8199 297.471 92.6799C297.191 92.5399 297.05 92.3999 296.91 92.2599C296.77 92.1199 296.77 91.9799 296.91 91.6999L297.051 90.7199C297.051 90.4399 297.19 90.2999 297.33 90.2999C297.47 90.2999 297.611 90.2999 297.891 90.2999C298.171 90.2999 298.591 90.4399 298.871 90.4399C299.291 90.4399 299.571 90.4399 299.991 90.5799C300.411 90.5799 300.691 90.5799 300.971 90.7199C301.251 90.7199 301.53 90.7199 301.81 90.7199C302.65 90.7199 303.351 90.5799 303.771 90.2999C304.191 90.0199 304.33 89.5999 304.33 89.0399C304.33 88.7599 304.331 88.4799 304.191 88.1999C304.051 87.9199 304.051 87.7799 303.771 87.6399C303.491 87.4999 303.351 87.3599 303.071 87.3599C302.791 87.2199 302.371 87.2199 301.951 87.0799C301.251 86.9399 300.551 86.7999 299.991 86.6599C299.431 86.5199 298.87 86.2399 298.31 85.9599C297.89 85.6799 297.471 85.2599 297.191 84.8399C296.911 84.4199 296.771 83.7199 296.771 83.0199C296.771 81.6199 297.191 80.6399 298.171 79.7999C299.151 79.0999 300.411 78.6799 301.951 78.6799C302.231 78.6799 302.51 78.6799 302.93 78.6799C303.35 78.6799 303.631 78.6799 304.051 78.8199C304.471 78.8199 304.751 78.9599 305.171 78.9599C305.591 78.9599 305.871 79.0999 306.151 79.2399C306.571 79.3799 306.85 79.6599 306.71 80.0799L306.43 81.0599C306.43 81.1999 306.291 81.3399 306.151 81.4799C306.011 81.4799 305.871 81.4799 305.591 81.4799C305.031 81.3399 304.33 81.3399 303.63 81.1999C302.93 81.1999 302.37 81.0599 301.81 81.0599C300.97 81.0599 300.271 81.1999 299.991 81.4799C299.711 81.7599 299.571 82.1799 299.571 82.7399C299.571 83.2999 299.71 83.5799 300.13 83.8599C300.55 83.9999 301.111 84.1399 301.951 84.2799C302.651 84.4199 303.21 84.5599 303.91 84.6999C304.61 84.8399 305.031 85.1199 305.591 85.3999C306.011 85.6799 306.43 86.0999 306.71 86.6599C307.27 87.2199 307.41 87.9199 307.41 88.7599Z" fill="#626366"/>
<path d="M313.711 75.4601C313.711 75.7401 313.711 75.8801 313.711 76.1601C313.711 76.3001 313.571 76.5801 313.431 76.7201C313.291 76.8601 313.151 77.0001 312.871 77.1401C312.591 77.2801 312.311 77.2801 312.031 77.2801C311.611 77.2801 311.331 77.2801 311.191 77.1401C310.911 77.0001 310.771 76.8601 310.631 76.7201C310.491 76.5801 310.491 76.4401 310.351 76.1601C310.351 76.0201 310.351 75.7401 310.351 75.6001C310.351 75.1801 310.491 74.7601 310.631 74.4801C310.911 74.2001 311.331 74.0601 312.031 74.0601C312.731 74.0601 313.151 74.2001 313.431 74.4801C313.571 74.6201 313.711 75.0401 313.711 75.4601ZM313.571 92.4001C313.571 92.5401 313.571 92.6801 313.431 92.8201C313.431 92.9601 313.291 92.9601 313.011 92.9601H311.051C310.631 92.9601 310.491 92.8201 310.491 92.4001V79.6601C310.491 79.2401 310.631 79.1001 311.051 79.1001H313.011C313.151 79.1001 313.291 79.1001 313.431 79.2401C313.431 79.3801 313.571 79.5201 313.571 79.6601V92.4001Z" fill="#626366"/>
<path d="M328.97 85.8198C328.97 86.6598 328.97 87.4998 328.83 88.3398C328.69 89.1798 328.41 90.0198 327.99 90.7198C327.57 91.4198 327.01 91.9798 326.17 92.5398C325.33 92.9598 324.21 93.2398 322.81 93.2398C321.41 93.2398 320.29 92.9598 319.45 92.5398C318.61 92.1198 318.05 91.5598 317.63 90.7198C317.21 90.0198 316.93 89.1798 316.93 88.3398C316.79 87.4998 316.79 86.6598 316.79 85.8198C316.79 85.1198 316.79 84.4198 316.93 83.5798C317.07 82.7398 317.35 82.0398 317.77 81.3398C318.19 80.6398 318.75 80.0798 319.59 79.5198C320.43 79.0998 321.41 78.8198 322.81 78.8198C324.21 78.8198 325.33 78.9598 326.03 79.3798C326.87 79.7998 327.43 80.3598 327.85 81.0598C328.27 81.7598 328.55 82.4598 328.69 83.2998C328.83 84.1398 328.97 84.9798 328.97 85.8198ZM325.75 85.9598C325.75 85.2598 325.75 84.5598 325.61 83.9998C325.47 83.4398 325.33 83.0198 325.19 82.5998C324.91 82.1798 324.63 81.8998 324.21 81.7598C323.79 81.6198 323.37 81.4798 322.67 81.4798C322.11 81.4798 321.55 81.6198 321.27 81.7598C320.99 81.8998 320.57 82.1798 320.43 82.5998C320.15 83.0198 320.01 83.4398 320.01 83.9998C319.87 84.5598 319.87 85.2598 319.87 85.9598C319.87 86.6598 319.87 87.3598 320.01 87.9198C320.15 88.4798 320.29 88.8998 320.43 89.3198C320.57 89.7398 320.99 90.0198 321.27 90.1598C321.55 90.2998 322.11 90.4398 322.67 90.4398C323.37 90.4398 323.79 90.2998 324.21 90.1598C324.63 90.0198 324.91 89.7398 325.19 89.3198C325.47 88.8998 325.61 88.4798 325.61 87.9198C325.61 87.3598 325.75 86.7998 325.75 85.9598Z" fill="#626366"/>
<path d="M343.53 92.8198C343.39 92.9598 343.25 92.9598 343.11 92.9598H341.01C340.59 92.9598 340.45 92.8198 340.45 92.3998V84.5598C340.45 83.7198 340.31 83.0198 340.03 82.5998C339.75 82.0398 339.19 81.8998 338.35 81.8998C338.07 81.8998 337.79 81.8998 337.37 82.0398C336.95 82.1798 336.67 82.3198 336.25 82.4598C335.83 82.5998 335.55 82.7398 335.27 82.8798C334.99 83.0198 334.71 83.1598 334.57 83.2998V92.3998C334.57 92.8198 334.43 92.9598 334.01 92.9598H332.05C331.63 92.9598 331.49 92.8198 331.49 92.3998V79.6598C331.49 79.2398 331.63 79.0998 332.05 79.0998H334.01C334.43 79.0998 334.57 79.2398 334.57 79.6598V80.4998C334.85 80.3598 335.13 80.0798 335.55 79.9398C335.97 79.7998 336.25 79.5198 336.67 79.3798C337.09 79.2398 337.51 79.0998 337.93 78.9598C338.35 78.8198 338.77 78.8198 339.19 78.8198C340.17 78.8198 340.87 78.9598 341.43 79.2398C341.99 79.5198 342.41 79.9398 342.69 80.3598C342.97 80.7798 343.11 81.4798 343.25 82.0398C343.39 82.7398 343.39 83.2998 343.39 84.1398V92.3998C343.67 92.5398 343.53 92.6798 343.53 92.8198Z" fill="#626366"/>
<path d="M360.75 39.2001H356.13V93.3801H360.75V39.2001Z" fill="#034DA1"/>
</svg>
