<svg width="254" height="76" viewBox="0 0 254 76" fill="none" xmlns="http://www.w3.org/2000/svg">
<path d="M19.9545 59H0.238636V0.81818H20.3523C26.1288 0.81818 31.0909 1.98295 35.2386 4.3125C39.4053 6.6231 42.6061 9.94697 44.8409 14.2841C47.0758 18.6212 48.1932 23.8106 48.1932 29.8523C48.1932 35.9129 47.0663 41.1212 44.8125 45.4773C42.5777 49.8333 39.3485 53.1761 35.125 55.5057C30.9205 57.8352 25.8636 59 19.9545 59ZM10.7784 49.8807H19.4432C23.4962 49.8807 26.8769 49.142 29.5852 47.6648C32.2936 46.1686 34.3295 43.9432 35.6932 40.9886C37.0568 38.0152 37.7386 34.303 37.7386 29.8523C37.7386 25.4015 37.0568 21.7083 35.6932 18.7727C34.3295 15.8182 32.3125 13.6117 29.642 12.1534C26.9905 10.6761 23.6951 9.9375 19.7557 9.9375H10.7784V49.8807ZM57.7528 59V15.3636H67.7244V22.6364H68.179C68.9744 20.1174 70.3381 18.1761 72.2699 16.8125C74.2206 15.4299 76.446 14.7386 78.946 14.7386C79.5142 14.7386 80.1487 14.767 80.8494 14.8239C81.5691 14.8617 82.1657 14.928 82.6392 15.0227V24.483C82.2036 24.3314 81.5123 24.1989 80.5653 24.0852C79.6373 23.9527 78.7377 23.8864 77.8665 23.8864C75.9915 23.8864 74.3059 24.2936 72.8097 25.108C71.3324 25.9034 70.1676 27.0114 69.3153 28.4318C68.4631 29.8523 68.0369 31.4905 68.0369 33.3466V59H57.7528ZM97.1918 75.3636C95.7902 75.3636 94.4929 75.25 93.2997 75.0227C92.1255 74.8144 91.188 74.5682 90.4872 74.2841L92.8736 66.2727C94.3698 66.7083 95.705 66.9167 96.8793 66.8977C98.0535 66.8788 99.0857 66.5095 99.9759 65.7898C100.885 65.089 101.652 63.9148 102.277 62.267L103.158 59.9091L87.3338 15.3636H98.2429L108.3 48.3182H108.754L118.839 15.3636H129.777L112.305 64.2841C111.491 66.5947 110.411 68.5739 109.067 70.2216C107.722 71.8883 106.074 73.1572 104.124 74.0284C102.192 74.9186 99.8812 75.3636 97.1918 75.3636ZM137.348 59V0.81818H175.189V9.65341H147.888V25.4489H173.229V34.2841H147.888V50.1648H175.416V59H137.348ZM198.044 59.8807C195.279 59.8807 192.788 59.3883 190.572 58.4034C188.375 57.3996 186.633 55.9223 185.345 53.9716C184.076 52.0208 183.442 49.6155 183.442 46.7557C183.442 44.2936 183.896 42.2576 184.805 40.6477C185.714 39.0379 186.955 37.75 188.527 36.7841C190.099 35.8182 191.87 35.089 193.839 34.5966C195.828 34.0852 197.883 33.7159 200.004 33.4886C202.561 33.2235 204.635 32.9867 206.226 32.7784C207.817 32.5511 208.972 32.2102 209.692 31.7557C210.43 31.2822 210.8 30.553 210.8 29.5682V29.3977C210.8 27.2576 210.165 25.6004 208.896 24.4261C207.627 23.2519 205.8 22.6648 203.413 22.6648C200.894 22.6648 198.896 23.214 197.419 24.3125C195.961 25.411 194.976 26.7083 194.464 28.2045L184.862 26.8409C185.62 24.1894 186.87 21.9735 188.612 20.1932C190.355 18.3939 192.485 17.0492 195.004 16.1591C197.523 15.25 200.307 14.7955 203.357 14.7955C205.459 14.7955 207.552 15.0417 209.635 15.5341C211.718 16.0265 213.622 16.8409 215.345 17.9773C217.069 19.0947 218.451 20.6193 219.493 22.5511C220.554 24.483 221.084 26.8977 221.084 29.7955V59H211.197V53.0057H210.857C210.232 54.2178 209.351 55.3542 208.214 56.4148C207.097 57.4564 205.686 58.2992 203.982 58.9432C202.296 59.5682 200.317 59.8807 198.044 59.8807ZM200.714 52.3239C202.779 52.3239 204.569 51.9167 206.084 51.1023C207.599 50.2689 208.764 49.1705 209.578 47.8068C210.411 46.4432 210.828 44.9564 210.828 43.3466V38.2045C210.506 38.4697 209.957 38.7159 209.18 38.9432C208.423 39.1705 207.571 39.3693 206.624 39.5398C205.677 39.7102 204.739 39.8617 203.811 39.9943C202.883 40.1269 202.078 40.2405 201.396 40.3352C199.862 40.5436 198.489 40.8845 197.277 41.358C196.065 41.8314 195.108 42.4943 194.408 43.3466C193.707 44.1799 193.357 45.2595 193.357 46.5852C193.357 48.4792 194.048 49.9091 195.43 50.875C196.813 51.8409 198.574 52.3239 200.714 52.3239ZM253.214 15.3636V23.3182H228.129V15.3636H253.214ZM234.322 4.90909H244.607V45.875C244.607 47.2576 244.815 48.3182 245.232 49.0568C245.667 49.7765 246.235 50.2689 246.936 50.5341C247.637 50.7992 248.413 50.9318 249.266 50.9318C249.91 50.9318 250.497 50.8845 251.027 50.7898C251.576 50.6951 251.993 50.6098 252.277 50.5341L254.01 58.5739C253.461 58.7633 252.675 58.9716 251.652 59.1989C250.648 59.4261 249.417 59.5587 247.959 59.5966C245.383 59.6723 243.063 59.2841 240.999 58.4318C238.934 57.5606 237.296 56.2159 236.084 54.3977C234.891 52.5795 234.304 50.3068 234.322 47.5795V4.90909Z" fill="#145594"/>
</svg>
