<svg width="96" height="96" viewBox="0 0 96 96" fill="none" xmlns="http://www.w3.org/2000/svg">
<path d="M51.7636 0.380127C52.0844 0.663604 52.4251 0.932161 52.7285 1.23553C58.214 6.70613 63.7012 12.1842 69.19 17.6697C69.4722 17.9293 69.6942 18.2474 69.8407 18.6017C69.9872 18.9561 70.0545 19.3381 70.0379 19.7212C70.0006 22.9762 70.0379 26.2337 70.0106 29.4887C69.9821 29.7581 70.0387 30.0296 70.1725 30.2651C70.3063 30.5006 70.5106 30.6883 70.7566 30.8017C77.0362 34.5167 80.9783 39.9409 82.583 47.0742C82.6476 47.3461 82.6876 47.6232 82.7024 47.9023C82.7297 48.693 82.3642 49.2252 81.5685 49.3495C80.7728 49.4738 80.2282 49.1282 80.0118 48.3548C79.7955 47.5815 79.6438 46.7236 79.4051 45.9254C76.4709 36.0783 67.3375 29.7622 56.911 30.3665C47.1435 30.9285 38.8207 38.4207 37.0179 48.2703C36.4881 51.1908 36.5616 54.1889 37.2339 57.0799C37.9062 59.971 39.163 62.6938 40.927 65.081C42.6911 67.4681 44.925 69.469 47.4912 70.9604C50.0575 72.4519 52.9018 73.4023 55.8492 73.7534C68.2476 75.2304 79.1838 66.2934 80.2381 53.8031C80.3277 52.7462 80.9244 52.1296 81.7799 52.2116C82.6353 52.2937 83.1052 52.9377 83.0232 53.9523C82.75 57.6747 81.6272 61.2849 79.7408 64.5055L79.2261 65.3933L82.6129 68.7627C83.5106 68.146 84.2864 68.514 85.0746 69.3296C87.4096 71.7317 89.7694 74.1089 92.179 76.4364C93.6287 77.8364 94.9143 79.2986 95.3171 81.3475V83.3965C95.25 83.6004 95.1704 83.7994 95.1157 84.0058C93.8202 88.9044 87.8099 90.6451 84.1546 87.119C81.1855 84.2544 78.3135 81.2904 75.3842 78.386C74.6656 77.6723 74.688 76.9313 75.1629 76.2052L71.8333 72.8656C71.7854 72.8755 71.7381 72.888 71.6916 72.9029C70.3065 73.4003 69.9509 74.3427 69.9808 75.8073C70.0877 80.8925 70.0255 85.9826 70.0205 91.0703C70.0205 93.9946 68.3271 95.6805 65.3929 95.6805H4.62444C1.72005 95.678 0.0191902 93.9623 0.0191902 91.038C0.0109014 68.2057 0.00675697 45.3742 0.00675697 22.5435C-0.00627194 22.2948 -0.000453166 22.0454 0.0241634 21.7975C0.138549 21.0142 0.62593 20.5542 1.39679 20.5542C2.16765 20.5542 2.66995 21.0093 2.78185 21.7975C2.81213 22.1373 2.81878 22.4788 2.80174 22.8195V90.6451C2.80174 92.5374 3.13992 92.8831 4.99993 92.8831H65.0348C66.8749 92.8831 67.2256 92.5424 67.2256 90.7421C67.2256 85.9031 67.2256 81.0632 67.2256 76.2226V75.2279C66.0096 75.5487 64.8757 75.9491 63.7094 76.1331C61.9701 76.4484 60.2096 76.6329 58.4428 76.6851C48.2998 76.7348 38.1568 76.71 28.0113 76.71C27.7625 76.7222 27.5131 76.7155 27.2653 76.6901C26.9512 76.6604 26.6585 76.5182 26.441 76.2898C26.2234 76.0613 26.0958 75.7619 26.0816 75.4468C26.0333 75.1342 26.1037 74.8148 26.279 74.5515C26.4544 74.2883 26.722 74.1002 27.0291 74.0244C27.3883 73.9357 27.7586 73.9005 28.1281 73.92C33.9618 73.92 39.7938 73.92 45.6241 73.92H46.8177C45.6216 73.1068 44.4131 72.5374 43.5403 71.6397C42.0832 70.1477 40.4271 69.8369 38.4427 69.914C35.036 70.0458 31.6194 69.9513 28.2077 69.9488C27.9289 69.9596 27.6497 69.9505 27.3722 69.9214C26.5591 69.8021 26.0443 69.2202 26.0717 68.4817C26.0759 68.3027 26.1155 68.1264 26.1883 67.9629C26.2611 67.7993 26.3657 67.6519 26.4959 67.5291C26.6261 67.4063 26.7794 67.3105 26.9469 67.2474C27.1144 67.1842 27.2928 67.155 27.4717 67.1613C28.9288 67.1265 30.3885 67.1439 31.8457 67.1439H38.8505C38.664 66.8206 38.5671 66.6117 38.4328 66.4252C36.5033 63.7531 35.1487 60.7101 34.4542 57.4883C34.3348 56.9312 34.1334 56.7224 33.544 56.7423C31.5895 56.7771 29.6351 56.7423 27.6806 56.7423C26.9669 56.7423 26.3129 56.4936 26.1886 55.7675C26.1226 55.2679 26.2556 54.7624 26.5591 54.3601C26.8077 54.0741 27.3822 53.9796 27.8024 53.9697C29.7917 53.9324 31.7636 53.9523 33.8201 53.9523V49.9065H29.2471C28.6578 49.9065 28.066 49.9264 27.4791 49.9065C26.6312 49.8617 26.0543 49.255 26.0816 48.4817C26.109 47.7083 26.6859 47.1463 27.5736 47.1339C29.374 47.1065 31.1718 47.1339 32.9721 47.1339H34.3622C35.1453 43.5007 36.7203 40.0849 38.9749 37.1301H37.8236C34.6274 37.1301 31.4321 37.1301 28.2376 37.1301C27.897 37.1457 27.5557 37.1299 27.218 37.0829C26.5193 36.9536 26.0269 36.4637 26.1364 35.7998C26.2159 35.3025 26.6511 34.8051 27.0539 34.4694C27.2827 34.2705 27.7651 34.3302 28.1331 34.3302C32.3206 34.3302 36.5081 34.3426 40.6956 34.3028C41.1993 34.2628 41.6809 34.079 42.0832 33.7732C43.605 32.6865 45.0845 31.5352 46.6735 30.3466H28.148C27.8381 30.3673 27.5268 30.3514 27.2205 30.2994C26.4745 30.1129 26.0294 29.6056 26.1065 28.8074C26.1761 28.0763 26.6262 27.6387 27.3822 27.5641C27.5056 27.5578 27.6292 27.5578 27.7527 27.5641C38.1767 27.5641 48.5998 27.5641 59.0221 27.5641C61.5683 27.5908 64.093 28.0326 66.497 28.872C66.6984 28.9417 66.9023 28.9939 67.1758 29.0759V20.497H66.1439C62.2349 20.497 58.3267 20.497 54.4194 20.497C51.6269 20.497 49.9136 18.7564 49.9111 15.9564C49.9111 11.7291 49.9111 7.52424 49.9111 3.17511H4.8557C3.22447 3.17511 2.81417 3.58043 2.81168 5.19177C2.81168 8.82226 2.81168 12.4528 2.81168 16.0808C2.81168 16.8069 2.5854 17.4633 1.87422 17.6026C1.40922 17.6921 0.797508 17.4708 0.382239 17.1948C0.136062 17.0207 0.03411 16.4811 0.0316234 16.1056C0.00675697 12.2588 -0.0106495 8.41197 0.0291367 4.56514C0.0515165 2.34208 1.3943 1.08882 3.36869 0.380127H51.7636ZM78.2613 77.3167C80.7728 79.8207 83.3116 82.3621 85.8654 84.8885C87.5439 86.5521 89.8639 86.6018 91.4181 85.0352C92.9722 83.4687 92.91 81.161 91.2365 79.4776C89.3442 77.5579 87.422 75.6631 85.5173 73.7583C84.8881 73.1267 84.2739 72.4727 83.707 71.8735L78.2613 77.3167ZM52.6961 5.3907C52.6961 8.90681 52.6961 12.398 52.6961 15.8918C52.6961 17.252 53.1636 17.702 54.5586 17.7045C57.8111 17.7045 61.0637 17.7045 64.3162 17.7045C64.5474 17.7045 64.7787 17.6822 64.9577 17.6722L52.6961 5.3907ZM80.3252 70.9211L77.5177 68.1062L74.494 71.0902L77.3412 73.9423L80.3252 70.9211Z" fill="#145594"/>
<path d="M9.57239 32.301C9.57239 31.3412 9.55001 30.3813 9.57239 29.424C9.62461 27.3949 10.8928 26.1391 12.9194 26.1167C14.8093 26.0968 16.6983 26.0968 18.5865 26.1167C20.6603 26.1366 21.9459 27.4247 21.9608 29.4886C21.9757 31.3751 21.9757 33.2642 21.9608 35.1557C21.9434 37.1673 20.6553 38.4828 18.6586 38.5076C16.7389 38.5325 14.8192 38.53 12.8995 38.5076C10.9226 38.4853 9.64451 37.2395 9.57488 35.275C9.54504 34.2853 9.57488 33.2932 9.57239 32.301ZM19.1733 32.301C19.1733 31.4356 19.146 30.5603 19.1733 29.7049C19.1982 29.0883 18.9396 28.8893 18.3527 28.8968C16.622 28.9167 14.8905 28.9167 13.1581 28.8968C12.6285 28.8968 12.35 29.051 12.3574 29.6428C12.3723 31.4356 12.3574 33.231 12.3574 35.0239C12.3574 35.5212 12.5663 35.7425 13.081 35.7375C14.8739 35.7201 16.6693 35.7251 18.4621 35.7375C18.9793 35.7375 19.1783 35.5162 19.1658 35.0065C19.1534 34.0988 19.1733 33.2036 19.1733 32.3035V32.301Z" fill="#145594"/>
<path d="M21.969 71.9582C21.969 72.9528 21.9889 73.9475 21.969 74.9297C21.9242 76.74 20.6983 78.0604 18.8906 78.1176C16.8167 78.1822 14.7445 78.1822 12.674 78.1176C10.9333 78.0653 9.68999 76.8568 9.61539 75.1162C9.53582 73.015 9.53831 70.9038 9.61539 68.8026C9.67756 66.9799 10.9905 65.7689 12.8157 65.744C14.805 65.7159 16.7869 65.7159 18.7612 65.744C20.6536 65.7714 21.9441 67.0868 21.9939 68.9767C21.9864 69.9763 21.969 70.966 21.969 71.9582ZM15.8643 68.5291C14.9666 68.5291 14.069 68.5465 13.1738 68.5291C12.6416 68.5142 12.3631 68.6783 12.3681 69.2577C12.383 71.0505 12.3681 72.8434 12.3681 74.6387C12.3681 75.1361 12.5745 75.3599 13.0892 75.3574C14.8821 75.3425 16.675 75.3574 18.4678 75.3574C18.9651 75.3574 19.1815 75.1435 19.179 74.6288C19.1624 72.8351 19.1624 71.0422 19.179 69.2502C19.179 68.7305 18.9676 68.5241 18.4604 68.534C17.595 68.5415 16.7297 68.5291 15.8643 68.5291Z" fill="#145594"/>
<path d="M15.7121 58.1027C14.7498 58.1027 13.7875 58.1177 12.8276 58.1027C10.9751 58.0704 9.66215 56.9017 9.59501 55.0765C9.52041 52.9703 9.52041 50.8492 9.59501 48.7505C9.66464 46.9576 10.9502 45.7914 12.7555 45.7665C14.7697 45.7367 16.7855 45.7367 18.803 45.7665C20.6655 45.7964 21.9312 47.0869 21.9561 48.9643C21.981 50.9536 21.981 52.9388 21.9561 54.9198C21.9287 56.7774 20.6332 58.058 18.7782 58.1002C17.7586 58.1201 16.7366 58.1002 15.7121 58.1027ZM12.3875 48.559C12.3875 50.7174 12.3875 52.7863 12.4099 54.8477C12.4099 55.0019 12.763 55.2779 12.9545 55.2829C14.8443 55.3152 16.7342 55.3177 18.624 55.2829C18.7531 55.244 18.8698 55.1723 18.9626 55.0746C19.0555 54.9769 19.1214 54.8567 19.1536 54.7259C19.1934 52.8692 19.1934 51.0108 19.1536 49.1508C19.1536 48.9494 18.8254 48.5889 18.6563 48.5864C16.6024 48.5441 14.5608 48.559 12.3875 48.559Z" fill="#145594"/>
<path d="M76.7395 52.152C76.6848 59.8108 71.7985 66.7361 64.6196 69.265C61.0632 70.5456 57.1957 70.684 53.5569 69.6609C49.918 68.6379 46.6893 66.5044 44.3212 63.5582C43.5006 62.5635 43.4558 61.6932 44.1969 61.1287C44.9379 60.5643 45.6689 60.8254 46.4821 61.7802C50.5154 66.5048 55.6279 68.4394 61.6978 67.1539C67.5762 65.9105 71.4827 62.2129 73.2483 56.4613C75.8493 47.9868 70.5279 39.0026 61.8868 37.0804C53.1562 35.1384 44.5276 41.0044 43.237 49.7623C42.9139 51.948 43.0554 54.1773 43.6523 56.3046C43.7701 56.6555 43.8281 57.0237 43.8239 57.3938C43.8171 57.7108 43.6895 58.0132 43.4672 58.2392C43.2449 58.4652 42.9446 58.5978 42.6278 58.6098C41.8818 58.6943 41.3845 58.3213 41.1358 57.6151C40.4423 55.5556 40.1551 53.381 40.2904 51.212C40.917 42.3919 46.8352 35.7949 55.5334 34.1661C65.4427 32.3136 75.4937 39.8108 76.5381 49.8319C76.6127 50.6102 76.6699 51.3811 76.7395 52.152Z" fill="#145594"/>
<path d="M56.724 49.7793C58.2011 48.3918 59.6234 47.0987 60.9961 45.7559C62.8934 43.9009 65.5217 43.7666 67.3096 45.4849C69.0975 47.2032 69.0677 49.8937 67.2276 51.7985C64.9233 54.1856 62.6082 56.5604 60.2824 58.9227C58.2931 60.9468 55.7517 60.9543 53.7003 58.9674C52.5663 57.8684 51.4349 56.7643 50.306 55.6552C48.4012 53.7778 48.2694 51.147 49.9827 49.3541C51.696 47.5612 54.3493 47.5762 56.2988 49.3839L56.724 49.7793ZM65.9395 48.6554C65.7455 48.2426 65.6486 47.8696 65.4248 47.5961C64.8155 46.8501 63.806 46.8998 63.0028 47.7154C61.3715 49.369 59.7701 51.0475 58.1364 52.6887C57.3009 53.5341 56.5947 53.5317 55.7294 52.721C55.2544 52.2759 54.8018 51.8084 54.3219 51.3683C53.5436 50.6521 52.6434 50.6223 52.0168 51.2763C51.3902 51.9303 51.4324 52.818 52.1934 53.5739C53.3538 54.7344 54.5291 55.8799 55.7194 57.0105C56.5798 57.8311 57.4078 57.841 58.2309 57.0105C60.5783 54.6283 62.9116 52.232 65.2308 49.8216C65.5342 49.5083 65.7008 49.0607 65.9395 48.6554Z" fill="#145594"/>
</svg>
