<svg width="94" height="94" viewBox="0 0 94 94" fill="none" xmlns="http://www.w3.org/2000/svg">
<circle cx="47" cy="47" r="47" fill="white"/>
<path d="M46.9334 94.0004C20.6023 93.902 -0.0464729 72.5592 7.85551e-05 46.9168C0.047688 20.9123 21.2656 -0.360554 47.6761 0.00463265C73.7301 0.374053 94.4783 21.8322 93.9916 47.9001C93.5198 73.2674 72.8658 93.9919 46.9334 94.0004ZM77.1559 71.1228C85.2167 60.3175 87.6596 48.4707 83.7874 35.5431C79.7067 21.9158 67.817 11.0597 52.6561 8.88237C41.6403 7.29989 31.7397 10.0795 22.9806 16.8127C41.0609 34.938 59.1193 53.0413 77.1559 71.1228ZM16.9057 22.9447C4.23203 38.5429 5.44448 63.0919 22.9669 77.1034C31.8032 84.17 41.962 86.7242 53.1354 85.0422C59.8134 84.0345 65.7762 81.3205 71.0016 77.1669L16.9057 22.9447Z" fill="#145594"/>
<path d="M47.8462 39.9412C46.5767 38.6656 45.3071 37.4007 44.0608 36.1051C43.9179 35.9569 43.8746 35.6626 43.8735 35.4351C43.8636 30.3909 43.8612 25.3453 43.8661 20.2984C43.8661 18.5836 42.4442 17.4404 40.8339 17.85C39.7399 18.1274 39.0628 19.0546 39.0618 20.3037C39.0575 23.6725 39.0575 27.0414 39.0618 30.4103V31.0761C38.8576 30.8941 38.7264 30.7882 38.6079 30.6707C37.497 29.5624 36.3777 28.4616 35.289 27.3322C35.0948 27.1217 34.9793 26.8506 34.9621 26.5647C34.9356 24.4138 34.9388 22.2619 34.9483 20.1078C34.9652 16.5798 37.8271 13.7081 41.3809 13.6403C44.8627 13.5736 47.8822 16.3829 47.951 19.8961C48.025 23.6687 47.9743 27.4444 47.9753 31.2222C47.9753 33.9207 47.9753 36.6192 47.9753 39.3177V39.8851L47.8462 39.9412Z" fill="#626366"/>
<path d="M57.0838 20.811H62.3156C63.0562 20.811 63.4794 21.1656 63.4963 21.7986C63.5132 22.4316 63.0837 22.8434 62.3209 22.8444C58.8126 22.8487 55.3046 22.8487 51.7971 22.8444C51.0417 22.8444 50.591 22.439 50.6079 21.805C50.6248 21.1709 51.084 20.81 51.8447 20.811C53.5925 20.8146 55.3388 20.8146 57.0838 20.811Z" fill="#626366"/>
<path d="M57.1034 34.9886C58.8818 34.9886 60.6603 34.9802 62.4388 34.9886C63.2746 34.9886 63.8057 35.8185 63.3635 36.479C63.1889 36.7394 62.7763 36.986 62.4705 36.9892C58.9136 37.0231 55.3556 37.0136 51.7986 37.004C51.1755 37.004 50.7406 36.5605 50.7502 35.9879C50.7597 35.4152 51.1934 34.9907 51.8198 34.9876C53.5813 34.9833 55.3418 34.9886 57.1034 34.9886Z" fill="#626366"/>
<path d="M53.836 29.9309C53.1324 29.9309 52.4289 29.9372 51.7264 29.9309C51.0461 29.9235 50.6197 29.5329 50.6133 28.9285C50.607 28.324 51.0439 27.907 51.7073 27.9038C53.1321 27.8953 54.5568 27.8953 55.9816 27.9038C56.6481 27.9038 57.0692 28.3219 57.0607 28.9359C57.0523 29.5318 56.6523 29.916 56.0027 29.9266C55.2822 29.9383 54.5607 29.9266 53.8392 29.9266L53.836 29.9309Z" fill="#626366"/>
<path d="M50.6777 42.7687C50.8946 42.2733 51.2141 42.0775 51.6659 42.0775C53.11 42.0775 54.5553 42.0701 56.0036 42.0775C56.6384 42.0775 57.0616 42.485 57.0616 43.0767C57.0616 43.6685 56.6681 44.0929 56.028 44.1003C54.7944 44.1151 53.5618 44.112 52.325 44.1003C52.1548 44.0929 51.9919 44.0292 51.8616 43.9193C51.4596 43.5573 51.0787 43.1657 50.6777 42.7687Z" fill="#626366"/>
<path d="M57.1152 49.1707H60.3368C61.0404 49.1707 61.745 49.1612 62.4528 49.1707C63.0876 49.1824 63.5023 49.5825 63.5108 50.1742C63.5192 50.7659 63.1034 51.184 62.4708 51.1904C61.4498 51.202 60.4288 51.1904 59.4089 51.1904C59.2926 51.1904 59.1392 51.1766 59.0662 51.1046C58.4335 50.496 57.822 49.8778 57.1152 49.1707Z" fill="#626366"/>
<path d="M42.4962 34.5841C41.8064 33.8876 41.2192 33.3139 40.6511 32.7147C40.2586 32.3019 40.4162 30.7756 40.869 30.4262C41.4731 29.9605 42.4253 30.3003 42.4782 31.0772C42.5502 32.1908 42.4962 33.3128 42.4962 34.5841Z" fill="#626366"/>
<path d="M44.0233 51.8317C44.2085 52.0561 44.3788 52.2964 44.583 52.5038C45.5997 53.5316 46.6366 54.5415 47.6374 55.5852C47.8273 55.7987 47.9391 56.0704 47.9548 56.3558C47.9887 57.572 47.9866 58.7903 47.9601 60.0066C47.9506 60.4046 48.0945 60.6417 48.3907 60.8894C51.7763 63.7886 53.2003 67.4521 52.1794 71.8143C51.1499 76.2208 48.2944 79.0238 43.8858 80.0706C38.9397 81.2467 33.8 78.7041 31.5804 74.1165C29.3607 69.5289 30.5763 64.1115 34.5438 60.8692C34.8559 60.6141 34.9532 60.3643 34.9522 59.9812C34.9402 54.5122 34.9373 49.0432 34.9437 43.5742V43.0132L35.0611 42.9434C35.3838 43.281 35.7023 43.6229 36.0313 43.9532C36.938 44.8667 37.8595 45.7664 38.7514 46.6947C38.9254 46.8786 39.0298 47.1174 39.0466 47.3701C39.0635 52.0984 39.0593 56.8257 39.0593 61.5541C39.0593 62.4549 38.6075 63.0583 37.8584 63.524C34.1555 65.8231 33.4794 70.9442 36.4958 74.0498C38.4932 76.1118 40.9509 76.7469 43.671 75.862C46.4303 74.9644 48.0088 72.9511 48.3166 70.073C48.6139 67.2944 47.4703 65.1128 45.148 63.596C44.2519 63.0096 43.8509 62.2834 43.8583 61.2334C43.8795 58.3055 43.8646 55.3766 43.8646 52.4477V51.9375L44.0233 51.8317Z" fill="#626366"/>
<path d="M40.4558 63.6322V48.3896C41.0017 48.9305 41.4281 49.4079 41.9116 49.8176C42.3951 50.2272 42.5326 50.6644 42.5284 51.2826C42.502 55.199 42.5221 59.1102 42.5041 63.0236C42.5041 63.483 42.6099 63.6798 43.086 63.81C45.5574 64.4833 47.283 67.0067 47.0703 69.5556C46.845 72.2443 44.8348 74.3602 42.1972 74.6809C39.2518 75.0461 36.5836 73.1482 36.0218 70.2902C35.4399 67.3264 37.1411 64.5669 40.0421 63.7624C40.1712 63.7275 40.3013 63.683 40.4558 63.6322ZM37.9579 69.1746C37.9755 70.1018 38.3565 70.985 39.0187 71.6339C39.6809 72.2828 40.5714 72.6455 41.4983 72.6439C42.4253 72.6422 43.3145 72.2763 43.9744 71.625C44.6342 70.9737 45.012 70.0892 45.0263 69.1619C45.0183 68.2165 44.6388 67.3123 43.9698 66.6447C43.3009 65.977 42.3962 65.5994 41.4514 65.5936C39.5375 65.6 37.9547 67.2206 37.9579 69.1746Z" fill="#626366"/>
</svg>
